<?xml version="1.0" encoding="utf-8"?>
<!-- Generator: Adobe Illustrator 18.1.1, SVG Export Plug-In . SVG Version: 6.00 Build 0)  -->
<svg version="1.1" id="Layer_1" xmlns="http://www.w3.org/2000/svg" xmlns:xlink="http://www.w3.org/1999/xlink" x="0px" y="0px"
	 viewBox="0 0 512 512" enable-background="new 0 0 512 512" xml:space="preserve">
<g>
	<path fill="#2E323F" d="M256,88.6c-92.3,0-167.4,75.1-167.4,167.4S163.7,423.4,256,423.4S423.4,348.3,423.4,256
		S348.3,88.6,256,88.6z M256,397.6c-78.1,0-141.6-63.5-141.6-141.6S177.9,114.4,256,114.4S397.6,177.9,397.6,256
		S334.1,397.6,256,397.6z"/>
	<path fill="#2E323F" d="M256,305.7c-9.5,0-17.6,8-17.6,17.6c0,9.5,8,17.6,17.6,17.6s17.6-8,17.6-17.6
		C273.6,313.7,265.6,305.7,256,305.7z"/>
	<path fill="#2E323F" d="M256,275.7c7.1,0,12.9-5.8,12.9-12.9V158c0-7.1-5.8-12.9-12.9-12.9s-12.9,5.8-12.9,12.9v104.9
		C243.1,270,248.9,275.7,256,275.7z"/>
</g>
</svg>
