<?xml version="1.0" encoding="utf-8"?>
<!-- Generator: Adobe Illustrator 18.1.1, SVG Export Plug-In . SVG Version: 6.00 Build 0)  -->
<svg version="1.1" id="Layer_1" xmlns="http://www.w3.org/2000/svg" xmlns:xlink="http://www.w3.org/1999/xlink" x="0px" y="0px"
	 viewBox="0 0 512 512" enable-background="new 0 0 512 512" xml:space="preserve">
<g>
	<path fill="#2E323F" d="M437.4,423.4H74.6c-7.7,0-14,6.2-14,14c0,7.7,6.2,14,14,14h362.7c7.7,0,14-6.2,14-14
		C451.3,429.7,445.1,423.4,437.4,423.4z"/>
	<path fill="#2E323F" d="M74.6,225.9h40.9v135.7H99.9c-7.7,0-14,6.2-14,14c0,7.7,6.2,14,14,14h312.2c7.7,0,14-6.2,14-14
		c0-7.7-6.2-14-14-14h-15.5V225.9h40.8c6,0,11.3-3.8,13.2-9.5c1.9-5.7,0-11.9-4.8-15.6L264.4,63.5c-5-3.8-11.9-3.8-16.8,0
		L66.2,200.8c-4.8,3.6-6.7,9.9-4.8,15.6C63.3,222,68.6,225.9,74.6,225.9z M143.4,225.9h56.5v135.7h-56.5V225.9z M284.3,225.9v135.7
		h-56.5V225.9H284.3z M368.7,361.5h-56.5V225.9h56.5V361.5z M256,92.1L395.8,198H116.2L256,92.1z"/>
</g>
</svg>
