<?xml version="1.0" encoding="utf-8"?>
<!-- Generator: Adobe Illustrator 19.1.0, SVG Export Plug-In . SVG Version: 6.00 Build 0)  -->
<svg version="1.1" id="Layer_1" xmlns="http://www.w3.org/2000/svg" xmlns:xlink="http://www.w3.org/1999/xlink" x="0px" y="0px"
	 viewBox="0 0 512 512" style="enable-background:new 0 0 512 512;" xml:space="preserve">
<style type="text/css">
	.st0{fill:#2E323F;}
</style>
<g id="XMLID_123_">
	<g id="XMLID_125_">
		<path class="st0" d="M439.3,385H72.7c-6.7,0-12.1-5.4-12.1-12.1s5.4-12.1,12.1-12.1c27.2,0,30.9-12.1,30.9-25.1V248
			c0-60.9,39.6-118.1,93.1-136.4c7.7-24.7,32.7-43.1,60.4-43.1c25.8,0,49.6,16.8,57.9,40.9c47.5,11.3,93.2,79.4,93.2,138.5v87.7
			c0,13,3.8,25.1,30.9,25.1c6.7,0,12.1,5.4,12.1,12.1S446,385,439.3,385z M122.2,360.8h267.5c-3.7-7-5.6-15.4-5.6-25.1V248
			c0-50.3-41.4-106.9-73.4-114c-8.6-1.9-15.6-8.3-18.5-16.7c-5-14.5-19.4-24.6-35-24.6c-18.5,0-35.7,13.6-38.3,30.2
			c-0.7,4.7-4.2,8.6-8.8,9.8c-46.1,12.5-82.3,63-82.3,115.2v87.7C127.9,345.4,125.9,353.8,122.2,360.8z"/>
	</g>
	<g id="XMLID_124_">
		<path class="st0" d="M256,443.4c-33,0-59.9-26.9-59.9-59.9c0-6.7,5.4-12.1,12.1-12.1c6.7,0,12.1,5.4,12.1,12.1
			c0,19.7,16,35.7,35.7,35.7s35.7-16,35.7-35.7c0-6.7,5.4-12.1,12.1-12.1s12.1,5.4,12.1,12.1C315.9,416.5,289,443.4,256,443.4z"/>
	</g>
</g>
</svg>
