<?xml version="1.0" encoding="utf-8"?>
<!-- Generator: Adobe Illustrator 19.1.0, SVG Export Plug-In . SVG Version: 6.00 Build 0)  -->
<svg version="1.1" id="Layer_1" xmlns="http://www.w3.org/2000/svg" xmlns:xlink="http://www.w3.org/1999/xlink" x="0px" y="0px"
	 viewBox="106 -106 512 512" style="enable-background:new 106 -106 512 512;" xml:space="preserve">
<style type="text/css">
	.st0{fill:#2E323F;}
</style>
<g>
	<path class="st0" d="M362-17.4c-92.3,0-167.4,75.1-167.4,167.4S269.7,317.4,362,317.4S529.4,242.3,529.4,150S454.3-17.4,362-17.4z
		 M349.1,52c0-7.1,5.8-12.9,12.9-12.9c7.1,0,12.9,5.8,12.9,12.9v104.8c0,7.1-5.8,12.9-12.9,12.9c-7.1,0-12.9-5.7-12.9-12.8V52z
		 M362,234.9c-9.6,0-17.6-8.1-17.6-17.6c0-9.6,8.1-17.6,17.6-17.6c9.6,0,17.6,8,17.6,17.6S371.6,234.9,362,234.9z"/>
</g>
</svg>
