<?xml version="1.0" encoding="utf-8"?>
<!-- Generator: Adobe Illustrator 18.1.1, SVG Export Plug-In . SVG Version: 6.00 Build 0)  -->
<svg version="1.1" id="Layer_1" xmlns="http://www.w3.org/2000/svg" xmlns:xlink="http://www.w3.org/1999/xlink" x="0px" y="0px"
	 viewBox="0 0 512 512" enable-background="new 0 0 512 512" xml:space="preserve">
<g>
	<path fill="#2E323F" d="M374.4,137.6c-31.6-31.6-73.7-49-118.4-49s-86.8,17.4-118.4,49c-31.6,31.6-49,73.7-49,118.4
		c0,44.7,17.4,86.8,49,118.4c31.6,31.6,73.7,49,118.4,49s86.8-17.4,118.4-49C439.7,309.1,439.7,202.9,374.4,137.6z M354.7,354.7
		c-26.3,26.3-61.4,40.9-98.7,40.9c-37.2,0-72.3-14.5-98.6-40.9c-26.3-26.3-40.9-61.4-40.9-98.7s14.5-72.3,40.9-98.7
		c26.3-26.3,61.4-40.9,98.6-40.9c37.3,0,72.3,14.5,98.7,40.9C409.1,211.7,409.1,300.3,354.7,354.7z"/>
	<path fill="#2E323F" d="M349.3,242H270v-79.3c0-7.7-6.2-14-14-14c-7.7,0-14,6.2-14,14V242h-79.3c-7.7,0-14,6.2-14,14s6.2,14,14,14
		h79.3v79.3c0,7.7,6.2,14,14,14c7.7,0,14-6.2,14-14v-79.3h79.3c7.7,0,14-6.2,14-14S357,242,349.3,242z"/>
</g>
</svg>
