<?xml version="1.0" encoding="utf-8"?>
<!-- Generator: Adobe Illustrator 18.1.1, SVG Export Plug-In . SVG Version: 6.00 Build 0)  -->
<svg version="1.1" id="Layer_1" xmlns="http://www.w3.org/2000/svg" xmlns:xlink="http://www.w3.org/1999/xlink" x="0px" y="0px"
	 viewBox="0 0 512 512" enable-background="new 0 0 512 512" xml:space="preserve">
<g>
	<g>
		<path fill="#2E323F" d="M374.4,137.7c-65.4-65.4-171.5-65.2-236.7,0s-65.4,171.3,0,236.7c65.2,65.2,171.5,65.2,236.7,0
			S439.6,202.9,374.4,137.7z M268.8,350c0,6.9-5.8,12.7-12.7,12.7c-3.6,0-6.9-1.5-9.1-3.6c-2.4-2.4-3.8-5.6-3.8-9.3V269l-81-0.2
			c-3.6,0-6.7-1.3-9.1-3.6c-2.4-2.4-3.8-5.6-3.8-9.3c0-6.9,5.8-12.7,12.7-12.7h81.2v-81.2c0-6.9,5.8-12.7,12.7-12.7
			c7.3,0,13.1,5.8,12.9,12.9l0,81.2l81-0.2c7.3,0,12.9,5.6,12.9,12.9c0,6.9-5.8,12.7-12.7,12.7h-81.2V350z"/>
	</g>
</g>
</svg>
