<?xml version="1.0" encoding="utf-8"?>
<!-- Generator: Adobe Illustrator 21.0.0, SVG Export Plug-In . SVG Version: 6.00 Build 0)  -->
<svg version="1.1" id="Layer_1" xmlns="http://www.w3.org/2000/svg" xmlns:xlink="http://www.w3.org/1999/xlink" x="0px" y="0px"
	 viewBox="0 0 512 512" style="enable-background:new 0 0 512 512;" xml:space="preserve">
<style type="text/css">
	.st0{fill:#2E323F;}
</style>
<g>
	<path class="st0" d="M381.1,56H130.9c-5.8,0-10.4,4.7-10.4,10.4v365c0,5.8,4.7,10.4,10.4,10.4h42.4c-0.4,1.2-0.7,2.4-0.7,3.7
		c0,2.7,1,5.2,3.1,7.3c1.9,1.9,4.6,2.9,7.3,2.9c2.7,0,5.4-1,7.3-2.9c2.1-1.9,3.1-4.6,3.1-7.3c0-1.3-0.3-2.6-0.7-3.7h126.6
		c-0.5,1.3-0.8,2.4-0.8,3.7c0,2.7,1,5.4,3.1,7.3c1.9,1.9,4.6,3.1,7.3,3.1c1.2,0,2.7-0.4,4-0.8c1.3-0.6,2.5-1.5,3.3-2.3
		c2.1-1.9,3.1-4.6,3.1-7.3c0-1.3-0.3-2.5-0.8-3.7h42.5c5.8,0,10.4-4.7,10.4-10.4v-365C391.6,60.7,386.9,56,381.1,56z M370.7,76.9
		v135.6H141.3V76.9H370.7z M141.3,421V233.3h229.4V421H141.3z"/>
	<path class="st0" d="M172.6,254.1c-5.8,0-10.4,4.7-10.4,10.4v62.6c0,5.8,4.7,10.4,10.4,10.4s10.4-4.7,10.4-10.4v-62.6
		C183,258.8,178.3,254.1,172.6,254.1z"/>
	<path class="st0" d="M172.6,191.6c5.8,0,10.4-4.7,10.4-10.4v-41.7c0-5.8-4.7-10.4-10.4-10.4s-10.4,4.7-10.4,10.4v41.7
		C162.2,186.9,166.8,191.6,172.6,191.6z"/>
</g>
</svg>
