<?xml version="1.0" encoding="utf-8"?>
<!-- Generator: Adobe Illustrator 18.1.1, SVG Export Plug-In . SVG Version: 6.00 Build 0)  -->
<svg version="1.1" id="Layer_1" xmlns="http://www.w3.org/2000/svg" xmlns:xlink="http://www.w3.org/1999/xlink" x="0px" y="0px"
	 viewBox="0 0 512 512" enable-background="new 0 0 512 512" xml:space="preserve">
<path fill="#2E323F" d="M327,139.9l-61.2-61.2c-5.4-5.4-14.3-5.4-19.7,0L185,139.9c-5.4,5.4-5.4,14.3,0,19.7
	c2.7,2.7,6.3,4.1,9.9,4.1c3.6,0,7.1-1.4,9.9-4.1l37.4-37.4v301.1c0,7.7,6.2,14,14,14s14-6.2,14-14V122.3l37.4,37.4
	c5.4,5.4,14.3,5.4,19.7,0C332.5,154.2,332.5,145.3,327,139.9z"/>
</svg>
