<?xml version="1.0" encoding="utf-8"?>
<!-- Generator: Adobe Illustrator 18.1.1, SVG Export Plug-In . SVG Version: 6.00 Build 0)  -->
<svg version="1.1" id="Layer_1" xmlns="http://www.w3.org/2000/svg" xmlns:xlink="http://www.w3.org/1999/xlink" x="0px" y="0px"
	 viewBox="0 0 512 512" enable-background="new 0 0 512 512" xml:space="preserve">
<path fill="#2E323F" d="M502.1,319.9c0-46.6-18.7-105.8-71.4-119.6c-18.8-4.9-29.8-4.5-37.7-4.3c-10,0.4-13.8,0.5-41.5-27
	c-48.3-48.2-53.7-52.4-62.3-54.2c-4.8-1-79.9-6.1-105.3,3.2l-3.8,1.4c-20.2,7.4-47.5,17.4-78.7,39.9H23.8c-5,0-9.6,2.7-12.1,7.1
	s-2.4,9.7,0.1,14l19.4,32.6l0.1,142.8c0,7.7,6.3,13.9,14,13.9h51.2c12.3,18.1,33,30.1,56.5,30.1c23.5,0,44.3-11.9,56.5-30.1h114.3
	c12.3,18.2,33.1,30.1,56.6,30.1c23.5,0,44.4-12,56.6-30.2h51.3c3.7,0,7.3-1.5,9.9-4.1c2.6-2.6,4.1-6.2,4.1-9.9l-0.2-33.2
	C502.1,321.4,502.1,320.6,502.1,319.9z M282.2,141.6c4.5,2.4,26.5,24.1,49.7,47.1c2.7,2.7,5.3,5.2,7.7,7.6l-89.3,0.4l-18.7-56.4
	C254.2,140,277.7,141,282.2,141.6z M152.9,371.7c-22.2,0-40.3-18.1-40.3-40.3c0-22.2,18.1-40.3,40.3-40.3
	c22.2,0,40.3,18.1,40.3,40.3C193.2,353.6,175.2,371.7,152.9,371.7z M416.8,348.5c-0.3,0.5-0.5,0.9-0.7,1.4
	c-6.7,12.9-20.2,21.7-35.7,21.7c-22.2,0-40.3-18.1-40.3-40.3c0-22.2,18.1-40.3,40.3-40.3c22.2,0,40.3,18.1,40.3,40.3
	C420.6,337.5,419.2,343.3,416.8,348.5z M474.1,341.5h-26.4c0.5-3.3,0.7-6.7,0.7-10.1c0-37.6-30.6-68.2-68.2-68.2
	c-37.6,0-68.2,30.6-68.2,68.2c0,3.5,0.2,6.9,0.8,10.2h-92.5c0.5-3.3,0.8-6.8,0.8-10.2c0-37.6-30.6-68.2-68.2-68.2
	c-37.6,0-68.2,30.6-68.2,68.2c0,3.5,0.3,6.9,0.8,10.2H59.2L59.1,209c0-2.5-0.7-5-2-7.1L48.4,187h57.8c3,0,5.9-1,8.3-2.8
	c29.5-22,54.9-31.3,75.4-38.8l3.8-1.4c2.3-0.8,5.4-1.5,9.1-2l24.2,73c1.9,5.7,6.1,9.5,13.3,9.6l150.7-0.7c1,0,1.9,0,2.9-0.1
	c7-0.2,14.9-0.5,29.7,3.4c36.6,9.6,50,54.2,50.5,90.5c-0.1,0.7-0.2,1.5-0.2,2.3L474.1,341.5z"/>
</svg>
