<?xml version="1.0" encoding="utf-8"?>
<!-- Generator: Adobe Illustrator 18.1.1, SVG Export Plug-In . SVG Version: 6.00 Build 0)  -->
<svg version="1.1" id="Layer_1" xmlns="http://www.w3.org/2000/svg" xmlns:xlink="http://www.w3.org/1999/xlink" x="0px" y="0px"
	 viewBox="0 0 512 512" enable-background="new 0 0 512 512" xml:space="preserve">
<path fill="#2E323F" d="M327,352.4c-5.4-5.4-14.3-5.4-19.7,0l-37.4,37.4V88.6c0-7.7-6.2-14-14-14c-7.7,0-14,6.2-14,14v301.1
	l-37.4-37.4c-5.4-5.4-14.3-5.4-19.7,0c-5.4,5.4-5.4,14.3,0,19.7l61.2,61.2c2.6,2.6,6.2,4.1,9.9,4.1c3.7,0,7.2-1.5,9.9-4.1l61.2-61.2
	C332.5,366.6,332.5,357.8,327,352.4z"/>
</svg>
