<?xml version="1.0" encoding="utf-8"?>
<!-- Generator: Adobe Illustrator 19.1.0, SVG Export Plug-In . SVG Version: 6.00 Build 0)  -->
<svg version="1.1" id="Layer_1" xmlns="http://www.w3.org/2000/svg" xmlns:xlink="http://www.w3.org/1999/xlink" x="0px" y="0px"
	 viewBox="0 0 512 512" style="enable-background:new 0 0 512 512;" xml:space="preserve">
<style type="text/css">
	.st0{fill:#2E323F;}
</style>
<path class="st0" d="M449.3,90.9c-3.3-2.6-7.6-3.5-11.6-2.4l-184.5,47.1V129c0-7.4-6-13.5-13.5-13.5H71c-7.4,0-13.5,6-13.5,13.5
	v180.8c0,7.4,6,13.5,13.5,13.5h14.1L62.7,407c-1.1,4.1-0.2,8.4,2.3,11.7c2.6,3.3,6.5,5.3,10.7,5.3h60c6.1,0,11.4-4.1,13-10
	l24.3-90.7h66.7c7.4,0,13.5-6,13.5-13.5v-6.6l184.5,47.1c1.1,0.3,2.2,0.4,3.3,0.4c3,0,5.9-1,8.3-2.8c3.3-2.6,5.2-6.5,5.2-10.6V101.5
	C454.5,97.4,452.6,93.5,449.3,90.9z M125.4,397H93.2l19.8-73.6h32.1L125.4,397z M226.2,296.3H84.4V142.5h141.8v10.4v133V296.3z
	 M427.6,320l-174.4-44.5v-112l174.4-44.5V320z"/>
</svg>
