<?xml version="1.0" encoding="utf-8"?>
<!-- Generator: Adobe Illustrator 19.0.0, SVG Export Plug-In . SVG Version: 6.00 Build 0)  -->
<svg version="1.0" id="Layer_1" xmlns="http://www.w3.org/2000/svg" xmlns:xlink="http://www.w3.org/1999/xlink" x="0px" y="0px"
	 viewBox="96 245 512 512" enable-background="new 96 245 512 512" xml:space="preserve">
<g>
	<path fill="#2E323F" d="M547,335H265.7c-4.1,0-8,2-10.3,5.3L146.6,493.7c-3.1,4.4-3.1,10.3,0,14.6l108.7,153.3
		c2.4,3.4,6.2,5.3,10.3,5.3H547c7,0,12.6-5.7,12.6-12.6V347.7C559.7,340.7,554,335,547,335z M534.4,641.7H272.2L172.5,501
		l99.7-140.7h262.2V641.7z"/>
	<path fill="#2E323F" d="M321.1,575.2c2.5,2.5,5.7,3.7,8.9,3.7c3.2,0,6.5-1.2,8.9-3.7l56.3-56.3l56.3,56.3c2.5,2.5,5.7,3.7,8.9,3.7
		c3.2,0,6.5-1.2,8.9-3.7c4.9-4.9,4.9-12.9,0-17.9L413.2,501l56.3-56.3c4.9-4.9,4.9-12.9,0-17.9c-4.9-4.9-12.9-4.9-17.9,0l-56.3,56.3
		L339,426.8c-4.9-4.9-12.9-4.9-17.9,0c-4.9,4.9-4.9,12.9,0,17.9l56.3,56.3l-56.3,56.3C316.2,562.2,316.2,570.2,321.1,575.2z"/>
</g>
</svg>
