<?xml version="1.0" encoding="utf-8"?>
<!-- Generator: Adobe Illustrator 21.0.0, SVG Export Plug-In . SVG Version: 6.00 Build 0)  -->
<svg version="1.1" id="Layer_1" xmlns="http://www.w3.org/2000/svg" xmlns:xlink="http://www.w3.org/1999/xlink" x="0px" y="0px"
	 viewBox="0 0 512 512" style="enable-background:new 0 0 512 512;" xml:space="preserve">
<style type="text/css">
	.st0{fill:#2E323F;}
</style>
<path class="st0" d="M423.3,241.7H122.2l125.3-125.3c5.4-5.4,5.4-14.3,0-19.7s-14.3-5.4-19.7,0L78.8,245.8c-2.6,2.6-4.1,6.2-4.1,9.9
	s1.5,7.2,4.1,9.9l149.6,149.6c2.7,2.7,6.3,4.1,9.9,4.1c3.6,0,7.1-1.4,9.9-4.1c5.4-5.4,5.4-14.3,0-19.7L122.2,269.7h301.1
	c7.7,0,14-6.2,14-14C437.4,247.9,431,241.7,423.3,241.7z"/>
</svg>
