<?xml version="1.0" encoding="utf-8"?>
<!-- Generator: Adobe Illustrator 19.1.0, SVG Export Plug-In . SVG Version: 6.00 Build 0)  -->
<svg version="1.1" id="Layer_1" xmlns="http://www.w3.org/2000/svg" xmlns:xlink="http://www.w3.org/1999/xlink" x="0px" y="0px"
	 viewBox="0 0 512 512" style="enable-background:new 0 0 512 512;" xml:space="preserve">
<style type="text/css">
	.st0{fill:#2E323F;}
</style>
<g>
	<g>
		<path class="st0" d="M195,461.8c-84,0-152.3-68.3-152.3-152.3S111.1,157.1,195,157.1s152.3,68.3,152.3,152.3S279,461.8,195,461.8z
			 M195,181.6c-70.5,0-127.9,57.4-127.9,127.9S124.5,437.4,195,437.4S323,380,323,309.5S265.6,181.6,195,181.6z"/>
	</g>
	<g>
		<path class="st0" d="M359.5,196.5c-40.3,0-73.1-32.8-73.1-73.1s32.8-73.1,73.1-73.1s73.1,32.8,73.1,73.1S399.9,196.5,359.5,196.5z
			 M359.5,74.6c-26.9,0-48.8,21.9-48.8,48.8s21.9,48.8,48.8,48.8s48.8-21.9,48.8-48.8S386.4,74.6,359.5,74.6z"/>
	</g>
	<g>
		<path class="st0" d="M414.4,316.9c-30.2,0-54.9-24.6-54.9-54.9s24.6-54.9,54.9-54.9s54.9,24.6,54.9,54.9S444.6,316.9,414.4,316.9z
			 M414.4,231.5c-16.8,0-30.5,13.7-30.5,30.5c0,16.8,13.7,30.5,30.5,30.5s30.5-13.7,30.5-30.5S431.2,231.5,414.4,231.5z"/>
	</g>
</g>
</svg>
