<?xml version="1.0" encoding="utf-8"?>
<!-- Generator: Adobe Illustrator 19.1.0, SVG Export Plug-In . SVG Version: 6.00 Build 0)  -->
<svg version="1.1" id="Layer_1" xmlns="http://www.w3.org/2000/svg" xmlns:xlink="http://www.w3.org/1999/xlink" x="0px" y="0px"
	 viewBox="0 0 512 512" style="enable-background:new 0 0 512 512;" xml:space="preserve">
<style type="text/css">
	.st0{fill:#2E323F;}
</style>
<g>
	<path class="st0" d="M409.5,450.7h-307c-7.7,0-14-6.2-14-14V75.2c0-7.7,6.2-14,14-14h231c3.7,0,7.2,1.5,9.8,4.1l76,75.7
		c2.6,2.6,4.1,6.2,4.1,9.9v285.9C423.5,444.5,417.2,450.7,409.5,450.7z M116.5,422.8h279.1V156.7l-67.8-67.6H116.5V422.8z"/>
	<path class="st0" d="M409.5,167.7h-76c-7.7,0-14-6.2-14-14V75.2c0-5.7,3.5-10.8,8.7-12.9c5.2-2.1,11.3-0.9,15.3,3.2l76,78.5
		c3.9,4,5,10,2.8,15.2C420.2,164.3,415.1,167.7,409.5,167.7z M347.5,139.8h29.1l-29.1-30.1V139.8z"/>
	<path class="st0" d="M359.5,394.7h-207c-7.7,0-14-6.2-14-14s6.2-14,14-14h207c7.7,0,14,6.2,14,14S367.2,394.7,359.5,394.7z"/>
	<path class="st0" d="M359.5,334.3h-207c-7.7,0-14-6.2-14-14c0-7.7,6.2-14,14-14h207c7.7,0,14,6.2,14,14
		C373.5,328,367.2,334.3,359.5,334.3z"/>
	<path class="st0" d="M359.5,273.8h-207c-7.7,0-14-6.2-14-14c0-7.7,6.2-14,14-14h207c7.7,0,14,6.2,14,14
		C373.5,267.5,367.2,273.8,359.5,273.8z"/>
</g>
</svg>
