<?xml version="1.0" encoding="utf-8"?>
<!-- Generator: Adobe Illustrator 21.0.0, SVG Export Plug-In . SVG Version: 6.00 Build 0)  -->
<svg version="1.1" id="Layer_1" xmlns="http://www.w3.org/2000/svg" xmlns:xlink="http://www.w3.org/1999/xlink" x="0px" y="0px"
	 viewBox="0 0 512 512" style="enable-background:new 0 0 512 512;" xml:space="preserve">
<style type="text/css">
	.st0{fill:#2E323F;}
</style>
<g>
	<path class="st0" d="M379.7,448.4H132.3c-37.9,0-68.7-30.8-68.7-68.7V132.3c0-37.9,30.8-68.7,68.7-68.7h247.3
		c37.9,0,68.7,30.8,68.7,68.7v247.3C448.4,417.6,417.6,448.4,379.7,448.4z M132.3,91.1c-22.7,0-41.2,18.5-41.2,41.2v247.3
		c0,22.7,18.5,41.2,41.2,41.2h247.3c22.7,0,41.2-18.5,41.2-41.2V132.3c0-22.7-18.5-41.2-41.2-41.2C379.6,91.1,132.3,91.1,132.3,91.1
		z"/>
</g>
</svg>
