<?xml version="1.0" encoding="utf-8"?>
<!-- Generator: Adobe Illustrator 18.1.1, SVG Export Plug-In . SVG Version: 6.00 Build 0)  -->
<svg version="1.1" id="Layer_1" xmlns="http://www.w3.org/2000/svg" xmlns:xlink="http://www.w3.org/1999/xlink" x="0px" y="0px"
	 viewBox="0 0 512 512" enable-background="new 0 0 512 512" xml:space="preserve">
<path fill="#2E323F" d="M427.8,150.5h-28.5v-9.6c0-3.6-0.3-7.1-0.9-10.6c-4.7-29-30.8-50.1-62.1-50.1c-9.8,0-19.6,2.2-28.4,6.4
	l-52,24.9l-52-24.9c-8.9-4.3-18.4-6.4-28.4-6.4c-31.2,0-57.3,21.1-62.1,50.1c-0.6,3.4-0.9,7-0.9,10.5v9.6H84.2
	c-13,0-23.5,10.5-23.5,23.5v33.8c0,11.7,8.5,21.4,19.7,23.2v175.3c0,14.1,11.4,25.5,25.5,25.5h298.2c14.1,0,25.6-11.5,25.6-25.5
	V231.2c12.1-0.9,21.7-11.1,21.7-23.4V174C451.3,161,440.8,150.5,427.8,150.5z M140.6,140.9c0-2.1,0.2-4.1,0.5-6.1
	c4-24.2,32.4-31.9,50.9-23l58,27.8c3.8,1.8,8.2,1.8,12,0l58-27.8c18.4-8.8,46.9-1.2,50.9,23c0.3,2,0.5,4,0.5,6.1v9.6H140.6V140.9z
	 M88.6,178.4h38.1h258.6h38.1v25h-7.5c-0.1,0-0.2,0-0.3,0s-0.2,0-0.3,0H94.6c-0.1,0-0.2,0-0.3,0s-0.2,0-0.3,0h-5.5V178.4z
	 M108.3,231.3H241v172.6H108.3V231.3z M268.9,403.9V231.3h132.8v172.6H268.9z"/>
</svg>
