<?xml version="1.0" encoding="utf-8"?>
<!-- Generator: Adobe Illustrator 18.1.1, SVG Export Plug-In . SVG Version: 6.00 Build 0)  -->
<svg version="1.1" id="Layer_1" xmlns="http://www.w3.org/2000/svg" xmlns:xlink="http://www.w3.org/1999/xlink" x="0px" y="0px"
	 viewBox="0 0 512 512" enable-background="new 0 0 512 512" xml:space="preserve">
<g>
	<path fill="#2E323F" d="M465.3,170.2h-52l12.7-12.7c17.8-17.8,17.8-46.6,0-64.4v0c-8.9-8.9-20.6-13.3-32.2-13.3
		s-23.3,4.4-32.2,13.3l-78.1,78.1c-1.6-0.6-3.3-1-5.1-1H46.7c-7.7,0-14,6.2-14,14v234.1c0,7.7,6.2,14,14,14h418.5
		c7.7,0,14-6.2,14-14V184.1C479.2,176.4,473,170.2,465.3,170.2z M381.2,112.8c3.3-3.3,7.8-5.2,12.5-5.2c4.7,0,9.1,1.8,12.5,5.2
		c3.3,3.3,5.2,7.8,5.2,12.5c0,4.7-1.8,9.1-5.2,12.5L258,286l-27.2,2.2L233,261L381.2,112.8z M451.3,404.3H60.7V198.1h195.8
		l-50.4,50.4l-5.1,62.7c-0.3,3.9,3,7.2,6.9,6.9l62.7-5.1l115.1-115.1c0.9,0.2,1.8,0.3,2.7,0.3h63V404.3z"/>
	<path fill="#2E323F" d="M299.1,350H101.5c-7.7,0-14,6.2-14,14c0,7.7,6.2,14,14,14h197.7c7.7,0,14-6.2,14-14
		C313.1,356.2,306.8,350,299.1,350z"/>
</g>
</svg>
