<?xml version="1.0" encoding="utf-8"?>
<!-- Generator: Adobe Illustrator 19.1.0, SVG Export Plug-In . SVG Version: 6.00 Build 0)  -->
<svg version="1.0" id="Layer_1" xmlns="http://www.w3.org/2000/svg" xmlns:xlink="http://www.w3.org/1999/xlink" x="0px" y="0px"
	 viewBox="0 0 512 512" enable-background="new 0 0 512 512" xml:space="preserve">
<path d="M331.5,314.4c4.9,4.9,4.9,13.1,0,18c-2.6,2.6-5.9,3.9-9,3.9c-3.3,0-6.7-1.3-9.3-3.9l-57.1-57.1l-57.4,57.2
	c-2.6,2.6-5.7,3.9-9,3.9c-3.4,0-6.7-1.3-9.3-3.9c-4.9-4.9-4.9-13.1,0-18l57.4-57.4l-57.4-57.4c-4.9-4.9-4.9-13.1,0-18
	c5.2-5.2,13.4-5.2,18.3,0l57.4,57.3l57.2-57.4c5.2-5.2,13.1-5.2,18.3,0c4.9,4.9,4.9,13.1,0,18L274.1,257L331.5,314.4z"/>
</svg>
