<?xml version="1.0" encoding="utf-8"?>
<!-- Generator: Adobe Illustrator 19.1.0, SVG Export Plug-In . SVG Version: 6.00 Build 0)  -->
<svg version="1.0" id="Layer_1" xmlns="http://www.w3.org/2000/svg" xmlns:xlink="http://www.w3.org/1999/xlink" x="0px" y="0px"
	 viewBox="0 0 512 512" style="enable-background:new 0 0 512 512;" xml:space="preserve">
<style type="text/css">
	.st0{fill:#2E323F;}
</style>
<g>
	<path id="SVGID_1_" class="st0" d="M256,114.4c-78.1,0-141.6,63.5-141.6,141.6S178,397.6,256,397.6S397.6,334.1,397.6,256
		S334.1,114.4,256,114.4z M256,423.4c-92.3,0-167.4-75.1-167.4-167.4S163.7,88.6,256,88.6S423.4,163.7,423.4,256
		S348.3,423.4,256,423.4z"/>
	<path class="st0" d="M341,243.1h-72.1V171c0-7.2-5.8-12.9-12.9-12.9c-7.1,0-12.9,5.8-12.9,12.9v85c0,7.1,5.8,12.9,12.9,12.9h85
		c7.2,0,12.9-5.8,12.9-12.9C353.9,248.9,348.1,243.1,341,243.1z"/>
</g>
</svg>
