<?xml version="1.0" encoding="utf-8"?>
<!-- Generator: Adobe Illustrator 19.1.0, SVG Export Plug-In . SVG Version: 6.00 Build 0)  -->
<svg version="1.1" id="Layer_1" xmlns="http://www.w3.org/2000/svg" xmlns:xlink="http://www.w3.org/1999/xlink" x="0px" y="0px"
	 viewBox="0 0 512 512" style="enable-background:new 0 0 512 512;" xml:space="preserve">
<style type="text/css">
	.st0{fill:#2E323F;}
</style>
<g>
	<path class="st0" d="M256,187c-41.1,0-74.5,33.4-74.5,74.5s33.4,74.5,74.5,74.5s74.5-33.4,74.5-74.5C330.5,220.5,297.1,187,256,187
		z M256,312.5c-28,0-50.9-22.8-50.9-50.9s22.8-50.9,50.9-50.9s50.9,22.8,50.9,50.9S284,312.5,256,312.5z"/>
	<path class="st0" d="M411.7,169.9h-75.5l-25.4-31.5c-2.2-2.8-5.6-4.4-9.2-4.4h-90.9c-3.6,0-7,1.6-9.2,4.4L176,169.9h-75.6
		c-6.5,0-11.8,5.3-11.8,11.8v184.4c0,6.5,5.3,11.8,11.8,11.8h311.3c6.5,0,11.8-5.3,11.8-11.8V181.7
		C423.5,175.2,418.2,169.9,411.7,169.9z M399.8,354.3H112.2V193.6h69.4c3.6,0,7-1.6,9.2-4.4l25.4-31.5h79.6l25.4,31.5
		c2.2,2.8,5.6,4.4,9.2,4.4h69.4v160.8H399.8z"/>
</g>
</svg>
