<?xml version="1.0" encoding="utf-8"?>
<!-- Generator: Adobe Illustrator 19.1.0, SVG Export Plug-In . SVG Version: 6.00 Build 0)  -->
<svg version="1.1" id="Layer_1" xmlns="http://www.w3.org/2000/svg" xmlns:xlink="http://www.w3.org/1999/xlink" x="0px" y="0px"
	 viewBox="0 0 512 512" style="enable-background:new 0 0 512 512;" xml:space="preserve">
<g>
	<path style="fill:#2E323F;" d="M424,120.2c0-6.2-5-11.2-11.2-11.2H100.2C94,109,89,114,89,120.2v270.7c0,6.2,5,11.2,11.2,11.2
		h312.7c6.2,0,11.2-5,11.2-11.2V120.2z M401,380H111V132h290V380z"/>
	<path style="fill:#2E323F;" d="M142.7,347.3c14.2,0,25.7-11.5,25.7-25.7c0-3.1-0.5-6-1.5-8.8l40.1-41.2c2.6,0.9,5.3,1.3,8.2,1.3
		c3.7,0,7.2-0.8,10.3-2.2l37.3,31.8c-0.6,2.1-0.8,4.3-0.8,6.5c0,14.2,11.5,25.7,25.7,25.7c14.2,0,25.7-11.5,25.7-25.7
		c0-5-1.5-9.7-4-13.7l47.9-76.3c0.9,0.1,1.9,0.2,2.8,0.2c14.2,0,25.7-11.5,25.7-25.7c0-14.2-11.5-25.7-25.7-25.7
		c-14.2,0-25.7,11.5-25.7,25.7c0,5,1.5,9.7,4,13.7l-47.9,76.3c-0.9-0.1-1.9-0.2-2.8-0.2c-3.7,0-7.2,0.8-10.4,2.2L240,253.8
		c0.6-2.1,0.8-4.3,0.8-6.5c0-14.2-11.5-25.7-25.7-25.7c-14.2,0-25.7,11.5-25.7,25.7c0,3.1,0.5,6.1,1.6,8.8l-40.1,41.1
		c-2.6-0.9-5.3-1.3-8.2-1.3c-14.2,0-25.7,11.5-25.7,25.7C117,335.8,128.5,347.3,142.7,347.3z"/>
</g>
</svg>
