<?xml version="1.0" encoding="utf-8"?>
<!-- Generator: Adobe Illustrator 19.1.0, SVG Export Plug-In . SVG Version: 6.00 Build 0)  -->
<svg version="1.1" id="Layer_1" xmlns="http://www.w3.org/2000/svg" xmlns:xlink="http://www.w3.org/1999/xlink" x="0px" y="0px"
	 viewBox="0 0 512 512" style="enable-background:new 0 0 512 512;" xml:space="preserve">
<path style="fill:#2E323F;" d="M412.4,123.4h-86.5v-17.3c0-6.2-5-11.2-11.2-11.2s-11.2,5-11.2,11.2v17.3h-94.8v-17.3
	c0-6.2-5-11.2-11.2-11.2s-11.2,5-11.2,11.2v17.3H99.7c-6.2,0-11.2,5-11.2,11.2v271.2c0,6.2,5,11.2,11.2,11.2h312.5
	c6.2,0,11.2-5,11.2-11.2V134.4C423.6,128.4,418.6,123.4,412.4,123.4z M401.3,394.4H111.1V145.7h75.4v15.1c0,6.2,5,11.2,11.2,11.2
	s11.2-5,11.2-11.2v-15.1h94.8v15.1c0,6.2,5,11.2,11.2,11.2s11.2-5,11.2-11.2v-15.1h75.4v248.8L401.3,394.4L401.3,394.4z M329.5,256
	h-59.3v-59.3c0-7.7-6.2-14-14-14c-7.7,0-14,6.2-14,14V256h-59.3c-7.7,0-14,6.2-14,14s6.2,14,14,14h59.3v58.3c0,7.7,6.2,14,14,14
	c7.7,0,14-6.2,14-14V284h59.3c7.7,0,14-6.2,14-14S337.2,256,329.5,256z"/>
</svg>
