<?xml version="1.0" encoding="utf-8"?>
<!-- Generator: Adobe Illustrator 18.1.1, SVG Export Plug-In . SVG Version: 6.00 Build 0)  -->
<svg version="1.1" id="Layer_1" xmlns="http://www.w3.org/2000/svg" xmlns:xlink="http://www.w3.org/1999/xlink" x="0px" y="0px"
	 viewBox="0 0 512 512" enable-background="new 0 0 512 512" xml:space="preserve">
<path fill="#2E323F" d="M479.2,266.2C479.2,266.2,479.2,266.2,479.2,266.2c0-0.1,0-0.2,0-0.2c0-0.4,0-0.8-0.1-1.2c0-0.1,0-0.2,0-0.3
	c0-0.4-0.1-0.7-0.2-1.1c0-0.1-0.1-0.3-0.1-0.4c-0.1-0.3-0.1-0.6-0.2-0.9c-0.1-0.2-0.1-0.3-0.2-0.5c-0.1-0.2-0.1-0.4-0.2-0.6
	L409.4,85.7c-1.1-2.7-3-5-5.3-6.5c-0.1,0-0.1-0.1-0.2-0.1c-0.3-0.2-0.6-0.3-0.9-0.5c-0.1-0.1-0.2-0.1-0.3-0.2
	c-0.3-0.2-0.6-0.3-1-0.4c-0.1,0-0.1-0.1-0.2-0.1c-0.4-0.2-0.8-0.3-1.2-0.4c-0.1,0-0.3-0.1-0.4-0.1c-0.3-0.1-0.6-0.1-0.8-0.2
	c-0.1,0-0.2,0-0.3-0.1L258.5,51.7c-1.6-0.3-3.3-0.3-5,0L113.1,77.1c-4.4,0.8-7.9,3.6-9.9,7.3c-0.1,0.3-0.3,0.5-0.4,0.8
	c0,0,0,0.1,0,0.1c-0.1,0.2-0.1,0.3-0.2,0.5L33.7,261.1c-0.1,0.2-0.1,0.4-0.2,0.6c-0.1,0.2-0.1,0.3-0.2,0.5c-0.1,0.3-0.2,0.6-0.2,0.9
	c0,0.1-0.1,0.3-0.1,0.4c-0.1,0.4-0.1,0.7-0.2,1.1c0,0.1,0,0.2,0,0.3c0,0.4-0.1,0.8-0.1,1.2c0,0.1,0,0.1,0,0.2c0,0,0,0.1,0,0.1
	c0,0.2,0,0.3,0,0.5c0.3,45.4,37.4,82.2,82.8,82.2s82.5-36.8,82.8-82.2c0-0.2,0-0.3,0-0.5c0,0,0-0.1,0-0.1c0-0.1,0-0.1,0-0.2
	c0-0.4,0-0.8-0.1-1.2c0-0.1,0-0.2,0-0.3c0-0.4-0.1-0.7-0.2-1.1c0-0.1-0.1-0.3-0.1-0.4c-0.1-0.3-0.1-0.6-0.2-0.9
	c-0.1-0.2-0.1-0.3-0.2-0.5c-0.1-0.2-0.1-0.4-0.2-0.6l-62.7-159.5L242,82.1v350.5h-42.4c-7.7,0-14,6.2-14,14c0,7.7,6.2,14,14,14
	h112.8c7.7,0,14-6.2,14-14c0-7.7-6.2-14-14-14H270V82.1l107.3,19.4l-62.7,159.5c-0.1,0.2-0.1,0.4-0.2,0.6c-0.1,0.2-0.1,0.3-0.2,0.5
	c-0.1,0.3-0.2,0.6-0.2,0.9c0,0.1-0.1,0.3-0.1,0.4c-0.1,0.4-0.1,0.7-0.2,1.1c0,0.1,0,0.2,0,0.3c0,0.4-0.1,0.8-0.1,1.2
	c0,0.1,0,0.1,0,0.2c0,0,0,0.1,0,0.1c0,0.2,0,0.3,0,0.5c0.3,45.4,37.4,82.2,82.8,82.2c45.5,0,82.5-36.8,82.8-82.2
	C479.2,266.6,479.2,266.4,479.2,266.2z M444.8,252.2H348L396.4,129L444.8,252.2z M115.6,129L164,252.2H67.2L115.6,129z M115.6,321.1
	c-25.5,0-46.9-17.4-53.1-41h106.3C162.6,303.7,141.1,321.1,115.6,321.1z M396.4,321.1c-25.5,0-46.9-17.4-53.1-41h106.2
	C443.3,303.7,421.9,321.1,396.4,321.1z"/>
</svg>
