<?xml version="1.0" encoding="utf-8"?>
<!-- Generator: Adobe Illustrator 19.1.0, SVG Export Plug-In . SVG Version: 6.00 Build 0)  -->
<svg version="1.1" id="Layer_1" xmlns="http://www.w3.org/2000/svg" xmlns:xlink="http://www.w3.org/1999/xlink" x="0px" y="0px"
	 viewBox="0 0 512 512" style="enable-background:new 0 0 512 512;" xml:space="preserve">
<style type="text/css">
	.st0{fill:#2E323F;}
</style>
<g id="XMLID_1440_">
	<path class="st0" d="M412.9,376.2H99.1c-5.8,0-10.5-4.7-10.5-10.5V146.3c0-5.8,4.7-10.5,10.5-10.5h313.9c5.8,0,10.5,4.7,10.5,10.5
		v219.5C423.4,371.5,418.7,376.2,412.9,376.2z M109.5,355.3h293V156.7h-293V355.3z"/>
	<path class="st0" d="M347.3,334.3H164.7c-3.1,0-6-1.4-8-3.8c-2-2.4-2.8-5.5-2.3-8.6c0.1-0.7,0.1-1.6,0.1-2.5
		c0-17.5-9.6-32.9-20.7-32.9c-5.8,0-10.5-4.7-10.5-10.5v-44.9c0-5.8,4.7-10.5,10.5-10.5c11.2,0,20.7-15,20.7-32.9
		c0-5.8,4.7-10.5,10.5-10.5h181.9c5.8,0,10.5,4.7,10.5,10.5c0,17.8,9.5,32.9,20.7,32.9c5.8,0,10.9,4.7,10.9,10.5v44.9
		c0,5.8-4.7,10.5-10.5,10.5c-11.5,0-21.1,15.3-21.1,32.9c1.2,3.2,0.6,7.2-1.4,10C353.9,332.3,350.7,334.3,347.3,334.3z M175.1,313.4
		h161.5c2-22.4,14.7-40.7,31.3-46.1v-27c-15.8-4.9-27.8-21-30.8-41.8H174.6c-3,20.6-14.8,36.6-30.4,41.7v27.3
		C160.7,273,173.2,291.1,175.1,313.4z"/>
	<path class="st0" d="M258.6,298.7c-20.4,0-36.9-19.5-36.9-43.5c0-24,16.6-43.5,36.9-43.5c20.3,0,36.9,19.5,36.9,43.5
		C295.5,279.2,279,298.7,258.6,298.7z M258.6,232.6c-8.7,0-16,10.3-16,22.6c0,12.2,7.3,22.6,16,22.6c8.6,0,16-10.3,16-22.6
		C274.6,243,267.3,232.6,258.6,232.6z"/>
</g>
</svg>
