<?xml version="1.0" encoding="utf-8"?>
<!-- Generator: Adobe Illustrator 19.1.0, SVG Export Plug-In . SVG Version: 6.00 Build 0)  -->
<svg version="1.1" id="Layer_1" xmlns="http://www.w3.org/2000/svg" xmlns:xlink="http://www.w3.org/1999/xlink" x="0px" y="0px"
	 viewBox="0 0 512 512" style="enable-background:new 0 0 512 512;" xml:space="preserve">
<path style="fill:#2E323F;" d="M412.4,123.4h-86.5v-17.3c0-6.2-5-11.2-11.2-11.2c-6.2,0-11.2,5-11.2,11.2v17.3h-94.8v-17.3
	c0-6.2-5-11.2-11.2-11.2s-11.2,5-11.2,11.2v17.3H99.7c-6.2,0-11.2,5-11.2,11.2v271.2c0,6.2,5,11.2,11.2,11.2h312.5
	c6.2,0,11.2-5,11.2-11.2V134.4C423.6,128.4,418.6,123.4,412.4,123.4z M401.3,394.4H111.1V145.7h75.4v15.1c0,6.2,5,11.2,11.2,11.2
	c6.2,0,11.2-5,11.2-11.2v-15.1h94.8v15.1c0,6.2,5,11.2,11.2,11.2s11.2-5,11.2-11.2v-15.1h75.4v248.8L401.3,394.4L401.3,394.4z
	 M203.3,209.9h21.4v122.2h-25.5v-86.9l-16.7,17.3l-15.3-16L203.3,209.9z M292.4,309.1h47.3v23h-89.8v-19.8l1-0.7
	c44.3-33.5,62.3-48.7,62.3-64.7c0-11.4-10.1-15.5-18.8-15.5c-11.9,0-22.2,4.6-29.8,13.2l-1.8,2.1l-15.2-17.2l1.3-1.6
	c10.2-12.2,27.1-19.8,45.1-19.8c26.5,0,45,15.9,45,38.7C339,268.1,321.3,286.7,292.4,309.1z"/>
</svg>
