<?xml version="1.0" encoding="utf-8"?>
<!-- Generator: Adobe Illustrator 18.1.1, SVG Export Plug-In . SVG Version: 6.00 Build 0)  -->
<svg version="1.1" id="Layer_1" xmlns="http://www.w3.org/2000/svg" xmlns:xlink="http://www.w3.org/1999/xlink" x="0px" y="0px"
	 viewBox="0 0 512 512" enable-background="new 0 0 512 512" xml:space="preserve">
<g>
	<path fill="#2E323F" d="M256,88.6c-92.4,0-167.4,75.2-167.4,167.4c0,92.2,74.9,167.4,167.4,167.4c92.2,0,167.4-75.2,167.4-167.4
		C423.4,163.8,348.2,88.6,256,88.6z M349.7,224.6l-102.2,102c-2.6,2.6-5.9,3.9-9.3,3.9c-3.1,0-6.4-1.3-9-3.9l-65.9-65.7
		c-4.9-5.2-4.9-13.1,0-18.3c5.1-4.9,13.4-4.9,18.3,0l56.6,56.6l93.2-93c5.1-5.1,13.1-5.1,18.3,0
		C354.6,211.2,354.6,219.4,349.7,224.6z"/>
</g>
</svg>
