<?xml version="1.0" encoding="utf-8"?>
<!-- Generator: Adobe Illustrator 21.0.0, SVG Export Plug-In . SVG Version: 6.00 Build 0)  -->
<svg version="1.1" id="Layer_1" xmlns="http://www.w3.org/2000/svg" xmlns:xlink="http://www.w3.org/1999/xlink" x="0px" y="0px"
	 viewBox="0 0 512 512" style="enable-background:new 0 0 512 512;" xml:space="preserve">
<style type="text/css">
	.st0{fill:#2E323F;}
</style>
<g>
	<path class="st0" d="M379.7,448.4H132.3c-37.9,0-68.7-30.8-68.7-68.7V132.3c0-37.9,30.8-68.7,68.7-68.7h247.3
		c37.9,0,68.7,30.8,68.7,68.7v247.3C448.4,417.6,417.6,448.4,379.7,448.4z M132.3,91.1c-22.7,0-41.2,18.5-41.2,41.2v247.3
		c0,22.7,18.5,41.2,41.2,41.2h247.3c22.7,0,41.2-18.5,41.2-41.2V132.3c0-22.7-18.5-41.2-41.2-41.2H132.3z"/>
</g>
<g>
	<path class="st0" d="M379.4,63.6H132.2c-37.8,0-68.6,30.8-68.6,68.6v247.2c0,37.8,30.8,68.9,68.6,68.9h247.2
		c38.2,0,68.9-31.1,68.9-68.9V132.2C448.4,94.4,417.6,63.6,379.4,63.6z M371.7,204.1l-127,126.3c-3.2,3.5-7.4,5.1-11.5,5.1
		c-3.8,0-8-1.6-11.2-5.1l-81.8-81.4c-6.1-6.4-6.1-16.4,0-22.8c6.4-6.1,16.7-6.1,22.8,0l70.2,70.2L349,181c6.1-6.1,16-6.1,22.8,0
		C377.8,187.4,377.8,197.3,371.7,204.1z"/>
</g>
</svg>
