<?xml version="1.0" encoding="utf-8"?>
<!-- Generator: Adobe Illustrator 18.1.1, SVG Export Plug-In . SVG Version: 6.00 Build 0)  -->
<svg version="1.1" id="Layer_1" xmlns="http://www.w3.org/2000/svg" xmlns:xlink="http://www.w3.org/1999/xlink" x="0px" y="0px"
	 viewBox="0 0 512 512" enable-background="new 0 0 512 512" xml:space="preserve">
<g>
	<g>
		<path fill="#2E323F" d="M256,423.4c-92.3,0-167.4-75.1-167.4-167.4S163.7,88.6,256,88.6S423.4,163.7,423.4,256
			S348.3,423.4,256,423.4z M256,116.5c-76.9,0-139.5,62.6-139.5,139.5S179.1,395.5,256,395.5S395.5,332.9,395.5,256
			S332.9,116.5,256,116.5z"/>
	</g>
	<g>
		<path fill="#2E323F" d="M238.5,331.1c-3.7,0-7.2-1.5-9.9-4.1l-65.4-65.4c-5.4-5.4-5.4-14.3,0-19.7c5.4-5.4,14.3-5.4,19.7,0
			l55.5,55.5l91.7-91.7c5.4-5.4,14.3-5.4,19.7,0c5.4,5.4,5.4,14.3,0,19.7L248.4,327C245.8,329.6,242.2,331.1,238.5,331.1z"/>
	</g>
</g>
</svg>
