<?xml version="1.0" encoding="utf-8"?>
<!-- Generator: Adobe Illustrator 18.1.1, SVG Export Plug-In . SVG Version: 6.00 Build 0)  -->
<svg version="1.1" id="Layer_1" xmlns="http://www.w3.org/2000/svg" xmlns:xlink="http://www.w3.org/1999/xlink" x="0px" y="0px"
	 viewBox="0 0 512 512" enable-background="new 0 0 512 512" xml:space="preserve">
<g>
	<g>
		<path fill="#2E323F" d="M256,88.6c-92.4,0-167.4,75.2-167.4,167.4S163.6,423.4,256,423.4c92.2,0,167.4-75.2,167.4-167.4
			S348.2,88.6,256,88.6z M331.4,313.4c4.9,4.9,4.9,13.1,0,18c-2.6,2.6-5.9,3.9-9,3.9c-3.3,0-6.7-1.3-9.3-3.9L256,274.3l-57.4,57.2
			c-2.6,2.6-5.7,3.9-9,3.9c-3.4,0-6.7-1.3-9.3-3.9c-4.9-4.9-4.9-13.1,0-18l57.4-57.4l-57.4-57.4c-4.9-4.9-4.9-13.1,0-18
			c5.2-5.2,13.4-5.2,18.3,0L256,238l57.2-57.4c5.2-5.2,13.1-5.2,18.3,0c4.9,4.9,4.9,13.1,0,18L274,256L331.4,313.4z"/>
	</g>
</g>
</svg>
