<?xml version="1.0" encoding="utf-8"?>
<!-- Generator: Adobe Illustrator 19.1.0, SVG Export Plug-In . SVG Version: 6.00 Build 0)  -->
<svg version="1.1" id="Layer_1" xmlns="http://www.w3.org/2000/svg" xmlns:xlink="http://www.w3.org/1999/xlink" x="0px" y="0px"
	 viewBox="0 0 512 512" style="enable-background:new 0 0 512 512;" xml:space="preserve">
<style type="text/css">
	.st0{fill:#2E323F;}
</style>
<g>
	<path class="st0" d="M429.8,110H82.2c-19.2,0-34.8,15.6-34.8,34.8v222.5c0,19.2,15.6,34.8,34.8,34.8h347.7
		c19.2,0,34.8-15.6,34.8-34.8V144.8C464.6,125.6,449,110,429.8,110z M82.2,137.8h347.7c3.8,0,7,3.1,7,7v34.8H75.2v-34.8
		C75.2,140.9,78.3,137.8,82.2,137.8z M429.8,374.2H82.2c-3.8,0-7-3.1-7-7V207.3h361.6v159.9C436.8,371.1,433.7,374.2,429.8,374.2z"
		/>
	<path class="st0" d="M256,235.1h-139c-7.7,0-13.9,6.2-13.9,13.9c0,7.7,6.2,13.9,13.9,13.9h139c7.7,0,13.9-6.2,13.9-13.9
		C269.9,241.4,263.6,235.1,256,235.1z"/>
	<path class="st0" d="M395,235.1h-41.7c-7.7,0-13.9,6.2-13.9,13.9c0,7.7,6.2,13.9,13.9,13.9H395c7.7,0,13.9-6.2,13.9-13.9
		C408.9,241.4,402.7,235.1,395,235.1z"/>
	<path class="st0" d="M172.5,290.7h-55.6c-7.7,0-13.9,6.2-13.9,13.9c0,7.7,6.2,13.9,13.9,13.9h55.6c7.7,0,13.9-6.2,13.9-13.9
		C186.4,297,180.2,290.7,172.5,290.7z"/>
</g>
</svg>
