<?xml version="1.0" encoding="utf-8"?>
<!-- Generator: Adobe Illustrator 19.1.0, SVG Export Plug-In . SVG Version: 6.00 Build 0)  -->
<svg version="1.1" id="Layer_1" xmlns="http://www.w3.org/2000/svg" xmlns:xlink="http://www.w3.org/1999/xlink" x="0px" y="0px"
	 viewBox="0 0 512 512" style="enable-background:new 0 0 512 512;" xml:space="preserve">
<style type="text/css">
	.st0{fill:#2E323F;}
</style>
<g>
	<g id="XMLID_389_">
		<path id="XMLID_390_" class="st0" d="M256,437.2c-3.6,0-7.1-1.4-9.9-4.1l-83.7-83.7c-5.4-5.4-5.4-14.3,0-19.7
			c5.4-5.4,14.3-5.4,19.7,0l73.8,73.8l73.8-73.8c5.4-5.4,14.3-5.4,19.7,0c5.4,5.4,5.4,14.3,0,19.7l-83.7,83.7
			C263.1,435.9,259.6,437.2,256,437.2z"/>
	</g>
	<g id="XMLID_391_">
		<path id="XMLID_392_" class="st0" d="M256,74.8c3.6,0,7.1,1.4,9.9,4.1l83.7,83.7c5.4,5.4,5.4,14.3,0,19.7
			c-5.4,5.4-14.3,5.4-19.7,0L256,108.4l-73.8,73.8c-5.4,5.4-14.3,5.4-19.7,0s-5.4-14.3,0-19.7l83.7-83.7
			C248.9,76.1,252.4,74.8,256,74.8z"/>
	</g>
</g>
</svg>
