<?xml version="1.0" encoding="utf-8"?>
<!-- Generator: Adobe Illustrator 19.1.0, SVG Export Plug-In . SVG Version: 6.00 Build 0)  -->
<svg version="1.1" id="Layer_1" xmlns="http://www.w3.org/2000/svg" xmlns:xlink="http://www.w3.org/1999/xlink" x="0px" y="0px"
	 viewBox="0 0 512 512" style="enable-background:new 0 0 512 512;" xml:space="preserve">
<style type="text/css">
	.st0{fill:#2E323F;}
</style>
<g id="XMLID_1499_">
	<g id="XMLID_1506_">
		<path id="XMLID_1507_" class="st0" d="M409.5,464.7h-307c-7.7,0-14-6.2-14-14V61.3c0-7.7,6.2-14,14-14h231c3.7,0,7.2,1.5,9.8,4.1
			l76,75.7c2.6,2.6,4.1,6.2,4.1,9.9v313.7C423.4,458.4,417.2,464.7,409.5,464.7z M116.5,436.8h279.1v-294l-67.8-67.5H116.5V436.8z"
			/>
	</g>
	<g id="XMLID_1502_">
		<path id="XMLID_1503_" class="st0" d="M409.5,153.7h-76c-7.7,0-14-6.2-14-14V61.3c0-5.7,3.5-10.8,8.7-12.9
			c5.2-2.1,11.3-0.9,15.3,3.2l76,78.5c3.9,4,5,10,2.8,15.2C420.1,150.4,415.1,153.7,409.5,153.7z M347.5,125.8h29.1l-29.1-30.1
			V125.8z"/>
	</g>
</g>
</svg>
