<?xml version="1.0" encoding="utf-8"?>
<!-- Generator: Adobe Illustrator 18.1.1, SVG Export Plug-In . SVG Version: 6.00 Build 0)  -->
<svg version="1.1" id="Layer_1" xmlns="http://www.w3.org/2000/svg" xmlns:xlink="http://www.w3.org/1999/xlink" x="0px" y="0px"
	 viewBox="0 0 512 512" enable-background="new 0 0 512 512" xml:space="preserve">
<g>
	<path fill="#2E323F" d="M419.7,112.5c-2.6-2.9-6.3-4.5-10.2-4.5h-62.7l-21.5-53.1c-2.2-5.3-7.2-8.7-12.9-8.7H199.7
		c-5.7,0-10.8,3.5-12.9,8.7L165.3,108h-62.7c-3.9,0-7.6,1.6-10.2,4.5c-2.6,2.8-4,6.7-3.7,10.5l25,329.9c0.6,7.3,6.6,12.9,13.9,12.9
		h256.9c7.3,0,13.4-5.6,13.9-12.9l25-329.9C423.7,119.2,422.3,115.3,419.7,112.5z M209.1,74.1h93.8l13.7,33.9H195.4L209.1,74.1z
		 M371.5,437.9h-231l-22.9-302h276.8L371.5,437.9z"/>
	<path fill="#2E323F" d="M164.6,171.3c-7.7,0.7-13.4,7.4-12.7,15.1l17.7,203.3c0.6,7.3,6.7,12.8,13.9,12.8c0.4,0,0.8,0,1.2-0.1
		c7.7-0.7,13.4-7.4,12.7-15.1L179.7,184C179.1,176.3,171.8,170.7,164.6,171.3z"/>
	<path fill="#2E323F" d="M218.3,389.8c0.6,7.3,6.7,12.8,13.9,12.8c0.4,0,0.8,0,1.2-0.1c7.7-0.7,13.4-7.4,12.7-15.1l-12.9-148.7
		c-0.7-7.7-7.5-13.4-15.1-12.7c-7.7,0.7-13.4,7.4-12.7,15.1L218.3,389.8z"/>
</g>
</svg>
