<?xml version="1.0" encoding="utf-8"?>
<!-- Generator: Adobe Illustrator 19.1.0, SVG Export Plug-In . SVG Version: 6.00 Build 0)  -->
<svg version="1.0" id="Layer_1" xmlns="http://www.w3.org/2000/svg" xmlns:xlink="http://www.w3.org/1999/xlink" x="0px" y="0px"
	 viewBox="0 0 512 512" enable-background="new 0 0 512 512" xml:space="preserve">
<g>
	<path fill="#2E323F" d="M398.6,206c33-33,55.5-89.9,34.4-111.1c-21.2-21.2-78.1,1.4-111.1,34.4c-29.6,29.6-31.9,58.7-16.5,80.1
		l-42.8,39.7l-42.4-39.4c14.4-20.6,12.3-48.4-14.5-76.7l0.1-0.1c0,0-67-59.2-78.4-58.3c-3.2,0.2-4.6,4.1-2.3,6.4l60.6,70.9
		c4.2,4.2,6.8,8.4,2.6,12.6c-4.2,4.2-8.4,1.6-12.6-2.6l-58.2-53.1c-4.8-4.8-15.3-12.6-20.1-7.8c-4.8,4.8,2.9,15.3,7.8,20.1
		l53.1,58.2c4.2,4.2,6.8,8.4,2.6,12.6c-4.2,4.2-8.4,1.6-12.6-2.6l-70.9-60.6c-2.2-2.2-6.1-0.8-6.4,2.3
		c-0.9,11.4,58.3,78.4,58.3,78.4l0.1-0.1c28.3,26.7,56,28.9,76.6,14.5l38.8,41.8L98.3,401.8c-8,8-8,21.1,0,29.2c8,8,21.1,8,29.2,0
		L320,223.6C341.2,237.9,369.8,234.9,398.6,206z"/>
	<path fill="#2E323F" d="M292.9,276.9l-19,20.5l124.4,134c8,8,21.1,8,29.2,0c8-8,8-21.1,0-29.2L292.9,276.9z"/>
</g>
</svg>
