<?xml version="1.0" encoding="utf-8"?>
<!-- Generator: Adobe Illustrator 19.1.0, SVG Export Plug-In . SVG Version: 6.00 Build 0)  -->
<svg version="1.0" id="Layer_1" xmlns="http://www.w3.org/2000/svg" xmlns:xlink="http://www.w3.org/1999/xlink" x="0px" y="0px"
	 viewBox="0 0 512 512" style="enable-background:new 0 0 512 512;" xml:space="preserve">
<style type="text/css">
	.st0{fill:#2E323F;}
</style>
<g>
	<path class="st0" d="M401.4,205.1c33.6-33.6,56.6-91.6,35-113.2c-21.6-21.6-79.6,1.4-113.2,35c-30.1,30.1-32.6,59.9-16.8,81.6
		L262.8,249l-43.3-40.2c14.7-21,12.5-49.3-14.8-78.2l0.1-0.1c0,0-68.3-60.3-80-59.5c-3.2,0.2-4.7,4.2-2.4,6.5l61.7,72.3
		c4.3,4.3,6.9,8.6,2.6,12.9c-4.3,4.3-8.6,1.6-12.9-2.6L114.7,106c-4.9-4.9-15.6-12.8-20.5-7.9c-4.9,4.9,3,15.6,7.9,20.5l54.1,59.4
		c4.3,4.3,6.9,8.6,2.6,12.9c-4.3,4.3-8.6,1.6-12.9-2.6l-72.3-61.7c-2.3-2.3-6.2-0.8-6.5,2.4c-0.9,11.7,59.5,80,59.5,80l0.1-0.1
		c28.8,27.3,57.1,29.5,78.1,14.8l39.5,42.6L95.3,404.6c-8.2,8.2-8.2,21.5,0,29.7s21.5,8.2,29.7,0L321.2,223
		C342.9,237.5,372,234.5,401.4,205.1z"/>
	<path class="st0" d="M293.6,277.3l-19.4,20.9l126.8,136.5c8.2,8.2,21.5,8.2,29.7,0c8.2-8.2,8.2-21.5,0-29.7L293.6,277.3z"/>
</g>
</svg>
