<?xml version="1.0" encoding="utf-8"?>
<!-- Generator: Adobe Illustrator 19.1.0, SVG Export Plug-In . SVG Version: 6.00 Build 0)  -->
<svg version="1.1" id="Layer_1" xmlns="http://www.w3.org/2000/svg" xmlns:xlink="http://www.w3.org/1999/xlink" x="0px" y="0px"
	 viewBox="0 0 512 512" style="enable-background:new 0 0 512 512;" xml:space="preserve">
<style type="text/css">
	.st0{fill:#2E323F;}
</style>
<path class="st0" d="M209.4,409.2c37.5,0,71.8-13.5,98.5-35.9c8.7,2,17.6,3,26.5,3c66.5,0,120.5-54.1,120.5-120.5
	s-54-120.5-120.5-120.5c-8.9,0-17.9,1-26.6,2.9c-26.7-22.4-61-35.9-98.5-35.9c-84.6,0-153.5,68.8-153.5,153.4
	S124.7,409.2,209.4,409.2z M428.2,255.8c0,51.7-42.1,93.8-93.8,93.8c-1.2,0-2.4,0-3.6-0.1c20.1-25.9,32-58.4,32-93.7
	c0-35.2-12-67.8-32-93.7c1.2,0,2.4-0.1,3.6-0.1C386.1,162,428.2,204.1,428.2,255.8z M209.4,129.1c69.8,0,126.7,56.8,126.7,126.7
	s-56.8,126.7-126.7,126.7c-69.9,0-126.7-56.8-126.7-126.7S139.5,129.1,209.4,129.1z"/>
</svg>
