<?xml version="1.0" encoding="utf-8"?>
<!-- Generator: Adobe Illustrator 19.1.0, SVG Export Plug-In . SVG Version: 6.00 Build 0)  -->
<svg version="1.1" id="Layer_1" xmlns="http://www.w3.org/2000/svg" xmlns:xlink="http://www.w3.org/1999/xlink" x="0px" y="0px"
	 viewBox="0 0 512 512" style="enable-background:new 0 0 512 512;" xml:space="preserve">
<style type="text/css">
	.st0{fill:#2E323F;}
</style>
<g>
	<path id="XMLID_58_" class="st0" d="M415.7,109.8c6,0,10.9,4.9,10.9,10.9v173.2c0,6-4.9,10.9-10.9,10.9H96.3
		c-6,0-10.9-4.9-10.9-10.9V120.6c0-6,4.9-10.9,10.9-10.9H415.7 M415.7,85.4H96.3c-19.5,0-35.3,15.8-35.3,35.3v173.2
		c0,19.5,15.8,35.3,35.3,35.3h319.5c19.5,0,35.3-15.8,35.3-35.3V120.6C451,101.2,435.2,85.4,415.7,85.4L415.7,85.4z"/>
	<path class="st0" d="M341.4,426.6H170.6c-6.7,0-12.1-5.5-12.1-12.2s5.4-12.2,12.1-12.2h170.8c6.7,0,12.1,5.5,12.1,12.2
		S348.1,426.6,341.4,426.6z"/>
	<path class="st0" d="M256,421.3c-6.7,0-12.2-4.9-12.2-11.1v-89.7c0-6.1,5.5-11.1,12.2-11.1s12.2,4.9,12.2,11.1v89.7
		C268.2,416.3,262.7,421.3,256,421.3z"/>
</g>
</svg>
