<?xml version="1.0" encoding="utf-8"?>
<!-- Generator: Adobe Illustrator 18.1.1, SVG Export Plug-In . SVG Version: 6.00 Build 0)  -->
<svg version="1.1" id="Layer_1" xmlns="http://www.w3.org/2000/svg" xmlns:xlink="http://www.w3.org/1999/xlink" x="0px" y="0px"
	 viewBox="0 0 512 512" enable-background="new 0 0 512 512" xml:space="preserve">
<g>
	<polygon fill="#2E323F" points="359.1,89.1 359.1,89.1 359.1,89.1 	"/>
	<path fill="#2E323F" d="M404.2,107.8c-12.4-12.4-28.8-18.7-45.1-18.7c-8.2,0-16.3,1.6-24,4.7c-7.7,3.1-14.9,7.8-21.1,14L96.6,325.3
		l-7.4,90.3c-0.3,4,2.8,7.3,6.7,7.3c0.2,0,0.4,0,0.6,0l90.3-7.4l188.6-188.6c0.9-0.5,1.7-1.2,2.5-1.9c0.8-0.8,1.4-1.6,1.9-2.5
		l24.5-24.5C429.1,173,429.1,132.7,404.2,107.8z M174.2,388.5L119,393l4.5-55.3l173.7-173.7l50.7,50.7L174.2,388.5z M384.5,178.2
		l-16.9,16.9l-50.7-50.7l16.9-16.9c6.8-6.8,15.8-10.5,25.4-10.5c9.6,0,18.6,3.7,25.4,10.5c6.8,6.8,10.5,15.8,10.5,25.4
		C395,162.5,391.3,171.5,384.5,178.2z"/>
</g>
</svg>
