<?xml version="1.0" encoding="utf-8"?>
<!-- Generator: Adobe Illustrator 19.1.0, SVG Export Plug-In . SVG Version: 6.00 Build 0)  -->
<svg version="1.1" id="Layer_1" xmlns="http://www.w3.org/2000/svg" xmlns:xlink="http://www.w3.org/1999/xlink" x="0px" y="0px"
	 viewBox="0 0 512 512" style="enable-background:new 0 0 512 512;" xml:space="preserve">
<style type="text/css">
	.st0{fill:#2E323F;}
</style>
<g id="XMLID_59_">
	<path class="st0" d="M254.5,306.3c-1.8,0-3.5-0.4-5.2-1.1L68.7,222c-4.4-2-7.2-6.4-7.2-11.2c0-4.8,2.8-9.2,7.2-11.2l180.7-83.1
		c3.3-1.5,7-1.5,10.3,0l180.7,83.1c4.4,2,7.2,6.4,7.2,11.2c0,4.8-2.8,9.2-7.2,11.2l-180.7,83.1C258.1,305.9,256.3,306.3,254.5,306.3
		z M103.4,210.8l151.1,69.5l151.1-69.5l-151.1-69.5L103.4,210.8z"/>
	<path class="st0" d="M254.1,396.6c-1.9,0-3.7-0.4-5.4-1.3l-104.3-50.7c-5-2.4-7.8-8-6.7-13.5l15.5-77.8c1.3-6.7,7.9-11.1,14.5-9.7
		c6.7,1.3,11,7.8,9.7,14.5l-13.6,68.4l90.3,43.9l90.2-43.9l-13.5-63.9c-1.4-6.7,2.9-13.2,9.5-14.6c6.6-1.2,13.2,2.8,14.6,9.5
		l15.5,73.4c1.2,5.5-1.6,11.2-6.7,13.7l-104.3,50.7C257.8,396.2,256,396.6,254.1,396.6z"/>
	<path class="st0" d="M417.2,378.5c-5.6,0-10.7-3.8-12-9.5l-29.3-124.7L252.4,223c-6.7-1.2-11.2-7.6-10.1-14.3
		c1.2-6.7,7.3-11.3,14.3-10.1l131.5,22.6c4.9,0.8,8.8,4.5,9.9,9.4l31.2,132.7c1.6,6.6-2.6,13.3-9.2,14.8
		C419.1,378.4,418.1,378.5,417.2,378.5z"/>
	<path class="st0" d="M438.1,347.2c-3.6,0-7.1-1.5-9.6-4.5L388.8,294c-4.3-5.3-3.5-13.1,1.8-17.4c5.3-4.3,13.1-3.5,17.4,1.8
		l39.7,48.7c4.3,5.3,3.5,13.1-1.8,17.4C443.7,346.2,440.9,347.2,438.1,347.2z"/>
</g>
</svg>
