<?xml version="1.0" encoding="utf-8"?>
<!-- Generator: Adobe Illustrator 18.1.1, SVG Export Plug-In . SVG Version: 6.00 Build 0)  -->
<svg version="1.1" id="Layer_1" xmlns="http://www.w3.org/2000/svg" xmlns:xlink="http://www.w3.org/1999/xlink" x="0px" y="0px"
	 viewBox="0 0 512 512" enable-background="new 0 0 512 512" xml:space="preserve">
<g>
	<path fill="#2E323F" d="M149.6,223.3H242v92.5c0,7.7,6.2,14,14,14s14-6.2,14-14v-92.5h92.5c7.7,0,14-6.2,14-14s-6.2-14-14-14H270
		v-92.5c0-7.7-6.2-14-14-14s-14,6.2-14,14v92.5h-92.5c-7.7,0-14,6.2-14,14S141.9,223.3,149.6,223.3z"/>
	<path fill="#2E323F" d="M423.4,319.1c-7.7,0-14,6.2-14,14v62H102.5v-61.7c0-7.7-6.2-14-14-14s-14,6.2-14,14v75.6
		c0,7.7,6.2,14,14,14h334.8c7.7,0,14-6.2,14-14v-76C437.4,325.4,431.1,319.1,423.4,319.1z"/>
</g>
</svg>
