<?xml version="1.0" encoding="utf-8"?>
<!-- Generator: Adobe Illustrator 19.0.0, SVG Export Plug-In . SVG Version: 6.00 Build 0)  -->
<svg version="1.0" id="Layer_1" xmlns="http://www.w3.org/2000/svg" xmlns:xlink="http://www.w3.org/1999/xlink" x="0px" y="0px"
	 viewBox="96 245 512 512" enable-background="new 96 245 512 512" xml:space="preserve">
<path fill="#2E323F" d="M574.4,360.1c-0.5-0.9-0.8-1.9-1.5-2.8c-0.2-0.3-0.6-0.4-0.9-0.7c-6.7-7.3-16-12-26.6-12H158.6
	c-20.1,0-36.4,16.4-36.4,36.5v239.8c0,20.1,16.3,36.4,36.4,36.4h386.8c20.1,0,36.5-16.4,36.5-36.4V381.1
	C581.8,373.1,578.7,366.1,574.4,360.1z M530.8,373.3L355.5,517.7L168.9,373.3H530.8z M545.4,628.7H158.6c-4.3,0-7.7-3.5-7.7-7.7
	V395.7L347,547.4c2.6,2,5.7,3,8.8,3c3.2,0,6.5-1.1,9.1-3.3l188.2-154.9v228.7C553.1,625.2,549.6,628.7,545.4,628.7z"/>
</svg>
