<?xml version="1.0" encoding="utf-8"?>
<!-- Generator: Adobe Illustrator 19.1.0, SVG Export Plug-In . SVG Version: 6.00 Build 0)  -->
<svg version="1.1" id="Layer_1" xmlns="http://www.w3.org/2000/svg" xmlns:xlink="http://www.w3.org/1999/xlink" x="0px" y="0px"
	 viewBox="0 0 512 512" style="enable-background:new 0 0 512 512;" xml:space="preserve">
<style type="text/css">
	.st0{fill:#2E323F;}
</style>
<g>
	<path class="st0" d="M96.5,466.6c-7.3,0-13.5-5.9-13.5-13.2V58.6c0-7.3,6.2-13.2,13.5-13.2S110,51.3,110,58.6v394.9
		C110,460.7,103.8,466.6,96.5,466.6z"/>
	<path class="st0" d="M345.3,270H109.3c-7.3,0-13.2-6.2-13.2-13.5c0-7.3,5.9-13.5,13.2-13.5h227.9l65.5-131H109.3
		c-7.3,0-13.2-5.7-13.2-13s5.9-13,13.2-13h314.6c4.6,0,8.8,1.8,11.2,5.7c2.4,3.9,2.6,8.4,0.6,12.5l-78.6,158.2
		C354.9,266.9,350.3,270,345.3,270z"/>
</g>
</svg>
