<?xml version="1.0" encoding="utf-8"?>
<!-- Generator: Adobe Illustrator 19.1.0, SVG Export Plug-In . SVG Version: 6.00 Build 0)  -->
<svg version="1.1" id="Layer_1" xmlns="http://www.w3.org/2000/svg" xmlns:xlink="http://www.w3.org/1999/xlink" x="0px" y="0px"
	 viewBox="0 0 512 512" style="enable-background:new 0 0 512 512;" xml:space="preserve">
<style type="text/css">
	.st0{fill:#2E323F;}
</style>
<path class="st0" d="M278.4,404.3c-1.7,0-3.5-0.4-5-1.2L228.6,380c-3.7-1.9-5.9-5.7-5.9-9.8v-85l-131.1-139c-3-3.2-3.8-7.9-2.1-11.9
	c1.7-4,5.7-6.6,10.1-6.6h312.8c4.4,0,8.4,2.6,10.1,6.6c1.7,4,0.9,8.7-2.1,11.9l-131.1,139v108.1c0,3.8-2,7.4-5.3,9.4
	C282.3,403.8,280.3,404.3,278.4,404.3z M244.6,363.5l22.7,11.7v-94.4c0-2.8,1.1-5.5,3-7.5l116.6-123.6H125.1l116.6,123.6
	c1.9,2,3,4.7,3,7.5V363.5z"/>
</svg>
