<?xml version="1.0" encoding="utf-8"?>
<!-- Generator: Adobe Illustrator 18.1.1, SVG Export Plug-In . SVG Version: 6.00 Build 0)  -->
<svg version="1.1" id="Layer_1" xmlns="http://www.w3.org/2000/svg" xmlns:xlink="http://www.w3.org/1999/xlink" x="0px" y="0px"
	 viewBox="0 0 512 512" enable-background="new 0 0 512 512" xml:space="preserve">
<g>
	<path fill="#2E323F" d="M238.4,145.4c-47.5,7.3-85.7,45.5-93,92.9c-5,32.7,4.3,65.7,25.6,90.5c21.3,24.8,52.2,39,84.9,39
		c5.8,0,11.7-0.4,17.6-1.4c47.4-7.3,85.7-45.5,92.9-93c5-32.7-4.3-65.7-25.6-90.4C315.8,153.8,277.8,139.3,238.4,145.4z
		 M339.9,269.4c-5.4,35.4-35,64.9-70.4,70.4c-29.9,4.6-58.9-6.4-78-28.6c-16.4-19.1-23.3-43.5-19.4-68.8c5.4-35.4,35-64.9,70.4-70.3
		c4.6-0.7,9.1-1,13.5-1c24.8,0,48.3,10.8,64.4,29.6C336.8,219.7,343.7,244.2,339.9,269.4z"/>
	<path fill="#2E323F" d="M447.5,210.8l-38.6-7.4c-2.2-6.3-4.7-12.5-7.7-18.5l21.8-32.3c3.6-5.4,2.9-12.5-1.6-17.1l-44.8-44.8
		c-4.6-4.6-11.8-5.2-17.1-1.6l-32.2,21.8c-6.1-3-12.4-5.6-19.1-7.8l-7.4-38.1C299.6,58.6,294,54,287.5,54h-63.3
		c-6.5,0-12,4.6-13.3,10.9l-7.4,38.2c-6.6,2.3-13,4.9-19.2,7.9l-32-21.7c-5.4-3.6-12.5-2.9-17.1,1.6l-44.8,44.8
		c-4.6,4.6-5.3,11.8-1.6,17.1l21.9,32.3c-3,6.1-5.6,12.4-7.8,18.8l-38.4,7.4c-6.4,1.2-10.9,6.8-10.9,13.3v63.3
		c0,6.5,4.6,12,10.9,13.3l38.6,7.4c2.2,6.3,4.8,12.6,7.8,18.7l-22,32.5c-3.6,5.4-3,12.5,1.6,17.1l44.8,44.8
		c4.6,4.6,11.8,5.2,17.1,1.6l32.7-22.1c5.9,2.9,12.1,5.4,18.5,7.6l7.4,38.4c1.2,6.4,6.8,10.9,13.3,10.9h63.3c6.5,0,12-4.6,13.3-10.9
		l7.4-38.4c6.4-2.2,12.7-4.8,18.7-7.7l32.7,22.2c5.4,3.6,12.5,3,17.1-1.6l44.8-44.8c4.6-4.6,5.3-11.8,1.6-17.1l-22.1-32.7
		c3-6.2,5.7-12.5,7.9-18.8l38.6-7.4c6.4-1.2,10.9-6.8,10.9-13.3V224C458.5,217.6,453.9,212,447.5,210.8z M431.5,276.2l-35.5,6.8
		c-5,1-9,4.7-10.4,9.6c-2.7,9.7-6.7,19.3-11.9,28.6c-2.5,4.4-2.2,9.9,0.6,14.1l20.4,30.1l-29,29L335.5,374
		c-4.2-2.9-9.7-3.1-14.1-0.6c-8.9,4.9-18.5,8.9-28.5,11.7c-4.9,1.4-8.6,5.4-9.6,10.4l-6.8,35.4h-41l-6.8-35.4c-1-5-4.7-9-9.5-10.4
		c-10.1-2.9-19.6-6.8-28.3-11.6c-4.4-2.5-9.9-2.2-14.1,0.6l-30.1,20.4l-29.1-29l20.3-30c2.9-4.2,3.1-9.7,0.6-14.2
		c-5.1-9.1-9.1-18.7-11.9-28.4c-1.4-4.9-5.4-8.6-10.4-9.6l-35.5-6.8v-41l35.3-6.8c5-1,9.1-4.7,10.5-9.6c2.7-9.8,6.7-19.3,11.8-28.5
		c2.5-4.5,2.2-9.9-0.6-14.1l-20.1-29.7l29-29l29.5,20c4.2,2.9,9.7,3.1,14.2,0.6c9-5,18.7-9,28.9-12c4.9-1.4,8.6-5.4,9.6-10.4
		l6.8-35.1h41.1l6.8,35.1c1,5,4.7,9,9.6,10.4c10.4,3,20.1,6.9,28.8,11.8c4.4,2.5,9.9,2.3,14.2-0.6l29.7-20.1l29,29l-20.1,29.7
		c-2.8,4.2-3.1,9.7-0.6,14.1c5,9,9,18.6,11.8,28.3c1.4,4.9,5.4,8.6,10.4,9.5l35.6,6.8V276.2z"/>
</g>
</svg>
