<?xml version="1.0" encoding="utf-8"?>
<!-- Generator: Adobe Illustrator 18.1.1, SVG Export Plug-In . SVG Version: 6.00 Build 0)  -->
<svg version="1.1" id="Layer_1" xmlns="http://www.w3.org/2000/svg" xmlns:xlink="http://www.w3.org/1999/xlink" x="0px" y="0px"
	 viewBox="0 0 512 512" enable-background="new 0 0 512 512" xml:space="preserve">
<path fill="#2E323F" d="M451.3,123.7h-63.2V68.4c0-7.7-6.2-14-14-14H137.8c-7.7,0-14,6.2-14,14v55.3H60.7c-7.7,0-14,6.2-14,14v236.7
	c0,7.7,6.2,14,14,14h63.2v55.2c0,7.7,6.2,14,14,14h236.3c7.7,0,14-6.2,14-14v-55.2h63.2c7.7,0,14-6.2,14-14V137.7
	C465.3,130,459,123.7,451.3,123.7z M74.6,360.4V151.6h49.2v208.8H74.6z M360.2,429.6H151.8V82.4h208.4V429.6z M437.4,360.4h-49.2
	V151.6h49.2V360.4z"/>
</svg>
