<?xml version="1.0" encoding="utf-8"?>
<!-- Generator: Adobe Illustrator 18.1.1, SVG Export Plug-In . SVG Version: 6.00 Build 0)  -->
<svg version="1.1" id="Layer_1" xmlns="http://www.w3.org/2000/svg" xmlns:xlink="http://www.w3.org/1999/xlink" x="0px" y="0px"
	 viewBox="0 0 512 512" enable-background="new 0 0 512 512" xml:space="preserve">
<g>
	<g>
		<path fill="#2E323F" d="M256,437.4C156,437.4,74.6,356,74.6,256S156,74.6,256,74.6S437.4,156,437.4,256S356,437.4,256,437.4z
			 M256,102.5c-84.6,0-153.5,68.9-153.5,153.5S171.4,409.5,256,409.5S409.5,340.6,409.5,256S340.6,102.5,256,102.5z"/>
	</g>
	<g>
		<path fill="#2E323F" d="M238.2,274.7c0-34,44.9-37.7,44.9-61.4c0-10.9-8.4-20.1-26.5-20.1c-12,0-21.7,3.9-29.7,10.4
			c-5.6,4.6-13.9,3.7-18.7-1.7l-0.4-0.5c-5.1-5.8-4.6-14.7,1.4-19.6c13.5-11.2,31-17.6,50.8-17.6c35.1,0,56.6,18.7,56.6,43.8
			c0,41.3-49.9,44.6-49.9,69.7c0,0.7,0.1,1.4,0.2,2c1.1,6.8-2.7,13.4-9.2,15.5h0c-6.7,2.2-14-1-16.8-7.4
			C239.1,283.8,238.2,279.4,238.2,274.7z M238.8,336.6c0-10.6,8.9-19.5,19.5-19.5s19.5,8.9,19.5,19.5s-8.9,19.5-19.5,19.5
			S238.8,347.2,238.8,336.6z"/>
	</g>
</g>
</svg>
