<?xml version="1.0" encoding="utf-8"?>
<!-- Generator: Adobe Illustrator 18.1.1, SVG Export Plug-In . SVG Version: 6.00 Build 0)  -->
<svg version="1.1" id="Layer_1" xmlns="http://www.w3.org/2000/svg" xmlns:xlink="http://www.w3.org/1999/xlink" x="0px" y="0px"
	 viewBox="0 0 512 512" enable-background="new 0 0 512 512" xml:space="preserve">
<g>
	<g>
		<path fill="#2E323F" d="M423.4,179.3H88.6c-7.7,0-14-6.2-14-14s6.2-14,14-14h334.8c7.7,0,14,6.2,14,14S431.1,179.3,423.4,179.3z"
			/>
	</g>
	<g>
		<path fill="#2E323F" d="M423.4,270H88.6c-7.7,0-14-6.2-14-14s6.2-14,14-14h334.8c7.7,0,14,6.2,14,14S431.1,270,423.4,270z"/>
	</g>
	<g>
		<path fill="#2E323F" d="M423.4,360.6H88.6c-7.7,0-14-6.2-14-14s6.2-14,14-14h334.8c7.7,0,14,6.2,14,14S431.1,360.6,423.4,360.6z"
			/>
	</g>
</g>
</svg>
