<?xml version="1.0" encoding="utf-8"?>
<!-- Generator: Adobe Illustrator 18.1.1, SVG Export Plug-In . SVG Version: 6.00 Build 0)  -->
<svg version="1.1" id="Layer_1" xmlns="http://www.w3.org/2000/svg" xmlns:xlink="http://www.w3.org/1999/xlink" x="0px" y="0px"
	 viewBox="0 0 512 512" enable-background="new 0 0 512 512" xml:space="preserve">
<path fill="#2E323F" d="M471,226.8L264.2,77.6c-4.9-3.6-11.6-3.6-16.5,0L41,226.8c-6.3,4.6-7.7,13.3-3.2,19.7
	c4.6,6.3,13.3,7.7,19.7,3.2l21.8-15.7v189c0,7.8,6.3,14.1,14.1,14.1h115.7c7.8,0,14.1-6.3,14.1-14.1V323h65.7v100
	c0,7.8,6.3,14.1,14.1,14.1h115.7c7.8,0,14.1-6.3,14.1-14.1v-189l21.8,15.7c2.5,1.8,5.4,2.7,8.2,2.7c4.4,0,8.7-2,11.4-5.8
	C478.7,240.2,477.3,231.4,471,226.8z M404.5,218.1v190.8H317v-100c0-7.8-6.3-14.1-14.1-14.1h-93.8c-7.8,0-14.1,6.3-14.1,14.1v100
	h-87.5V218.1c0-1.4-0.2-2.8-0.6-4.1L256,106.4L405.1,214C404.7,215.3,404.5,216.7,404.5,218.1z"/>
</svg>
