<?xml version="1.0" encoding="utf-8"?>
<!-- Generator: Adobe Illustrator 19.1.0, SVG Export Plug-In . SVG Version: 6.00 Build 0)  -->
<svg version="1.1" id="Layer_1" xmlns="http://www.w3.org/2000/svg" xmlns:xlink="http://www.w3.org/1999/xlink" x="0px" y="0px"
	 viewBox="0 0 512 512" style="enable-background:new 0 0 512 512;" xml:space="preserve">
<style type="text/css">
	.st0{fill:#2E323F;}
</style>
<g id="XMLID_122_">
	<g id="XMLID_141_">
		<path class="st0" d="M131.1,285.1c-3.3,0-6.6-1.3-9.2-3.8c-18.8-18.8-28.1-44.8-25.6-71.2c2.6-26.5,16.9-50.3,39.3-65.5
			c35.7-24,86.4-17.3,115.3,15.3c5.6,6.3,10.2,13.2,13.6,20.6c1.4,2.5,2.7,5.7,3.7,9.1c2.2,6.8-1.6,14.1-8.4,16.3
			c-6.9,2.1-14.1-1.6-16.3-8.4c-0.6-1.9-1.3-3.7-2.2-5.4c-2.6-5.6-5.8-10.4-9.7-14.8c-20.6-23.1-56.4-28-81.5-11
			c-16.2,10.9-26.2,27.4-28,46.4c-1.8,18.7,4.8,37.1,18.1,50.4c5.1,5.1,5.1,13.3,0,18.3C137.7,283.9,134.4,285.1,131.1,285.1z"/>
		<path class="st0" d="M380.6,285.1c-3.3,0-6.6-1.3-9.2-3.8c-5.1-5.1-5.1-13.3,0-18.3c13.1-13.1,19.7-31.2,18.2-49.7
			c-1.6-18.7-11.1-35.2-26.8-46.2c-24.2-17-58.5-14.1-79.8,7c-5.2,5.1-9.2,10.8-12.4,17.5c-0.8,1.7-1.6,3.4-2.1,5.1
			c-1.7,6.9-8.7,11.1-15.7,9.4c-7-1.7-11.2-8.8-9.4-15.7c0.8-3.3,2.2-6.5,3.6-9.5c4.7-9.8,10.6-18.1,17.8-25.2
			c30.2-29.8,78.7-34,113-9.8c21.7,15.3,35.5,39.1,37.7,65.2c2.2,26.1-7.1,51.8-25.7,70.3C387.3,283.9,383.9,285.1,380.6,285.1z"/>
		<path class="st0" d="M255.9,409.8C255.8,409.8,255.8,409.8,255.9,409.8c-3.4,0-6.8-1.3-9.3-3.7L121.9,281.3
			c-5.1-5.1-5.1-13.3,0-18.3c5.1-5.1,13.3-5.1,18.3,0l123.4,123.4c0.5,0.4,0.9,0.8,1.4,1.2c5,5.1,5.1,13.2,0.1,18.3
			C262.7,408.3,259.3,409.8,255.9,409.8z"/>
		<path class="st0" d="M256.1,409.8c-0.2,0-0.3,0-0.5,0c-3.6-0.2-7-1.8-9.4-4.5c-4.7-5.4-4.1-13.7,1.3-18.4c0.2-0.2,0.4-0.3,0.6-0.5
			L371.5,263c5.1-5.1,13.3-5.1,18.3,0c5.1,5.1,5.1,13.3,0,18.3L265.3,406C262.8,408.5,259.5,409.8,256.1,409.8z"/>
	</g>
	<g id="XMLID_123_">
		<path class="st0" d="M254.6,320.1c-5,0-9.5-2.8-11.6-7.3l-18.6-38.2l-4,6.4c-3.8,6.1-11.8,7.9-17.9,4.1
			c-6.1-3.8-7.9-11.8-4.1-17.9l16.4-26.3c2.5-4,6.8-6.5,11.7-6.1c4.7,0.2,8.9,3,11,7.3l16.9,34.7l33.5-72.5c2.3-4.9,7.3-8,12.7-7.5
			c5.4,0.4,10,4.1,11.5,9.2l16.8,56.1h108.8c7.2,0,13,5.8,13,13c0,7.2-5.8,13-13,13H319.1c-5.7,0-10.8-3.7-12.4-9.2l-9.7-32.5
			l-30.6,66.2c-2.1,4.5-6.6,7.5-11.6,7.5C254.6,320.1,254.6,320.1,254.6,320.1z"/>
		<path class="st0" d="M204.1,288.2H74.5c-7.2,0-13-5.8-13-13c0-7.2,5.8-13,13-13h129.7c7.2,0,13,5.8,13,13
			C217.1,282.4,211.3,288.2,204.1,288.2z"/>
	</g>
</g>
</svg>
