<?xml version="1.0" encoding="utf-8"?>
<!-- Generator: Adobe Illustrator 19.1.0, SVG Export Plug-In . SVG Version: 6.00 Build 0)  -->
<svg version="1.1" id="Layer_1" xmlns="http://www.w3.org/2000/svg" xmlns:xlink="http://www.w3.org/1999/xlink" x="0px" y="0px"
	 viewBox="0 0 512 512" style="enable-background:new 0 0 512 512;" xml:space="preserve">
<style type="text/css">
	.st0{fill:#2E323F;}
</style>
<g id="XMLID_9_">
	<path id="XMLID_85_" class="st0" d="M256,68.6c-92.2,0-167.4,74.9-167.4,167.4c0,92.2,75.2,167.4,167.4,167.4
		c92.5,0,167.4-75.2,167.4-167.4C423.4,143.5,348.5,68.6,256,68.6z M268.9,310.7c0,7.2-5.7,12.9-12.9,12.9c-7,0-12.9-5.7-12.9-12.9
		V229c0-7.2,5.9-12.9,12.9-12.9c7.2,0,12.9,5.7,12.9,12.9V310.7z M256,186.3c-9.5,0-17.5-8-17.5-17.5c0-9.8,8-17.8,17.5-17.8
		c9.5,0,17.8,8,17.8,17.8C273.8,178.3,265.5,186.3,256,186.3z"/>
</g>
</svg>
