<?xml version="1.0" encoding="utf-8"?>
<!-- Generator: Adobe Illustrator 19.1.0, SVG Export Plug-In . SVG Version: 6.00 Build 0)  -->
<svg version="1.1" id="Layer_1" xmlns="http://www.w3.org/2000/svg" xmlns:xlink="http://www.w3.org/1999/xlink" x="0px" y="0px"
	 viewBox="0 0 512 512" style="enable-background:new 0 0 512 512;" xml:space="preserve">
<style type="text/css">
	.st0{fill:#2E323F;}
</style>
<g>
	<path class="st0" d="M133.5,282.5v66.8h-22.3v-66.8H133.5 M133.5,260.2h-22.3c-12.3,0-22.3,10-22.3,22.3v66.8
		c0,12.3,10,22.3,22.3,22.3h22.3c12.3,0,22.3-10,22.3-22.3v-66.8C155.8,270.2,145.8,260.2,133.5,260.2L133.5,260.2z"/>
	<path class="st0" d="M244.9,237.9v111.3h-44.5V237.9H244.9 M244.9,215.7h-44.5c-12.3,0-22.3,10.9-22.3,23.2v110.4
		c0,12.3,10,22.3,22.3,22.3h44.5c12.3,0,22.3-10,22.3-22.3V238.9C267.1,226.6,257.2,215.7,244.9,215.7L244.9,215.7z"/>
	<path class="st0" d="M338,118.2l62.8,52.9h-44.5v178.1h-44.5V171.1h-44.5L338,118.2 M338,95.9c-4.7,0-9.4,1.5-13.3,4.4l-70.8,52.9
		c-7.7,5.7-10.8,15.8-7.8,24.9c3,9.1,11.5,15.2,21.1,15.2h22.3V349c0,12.3,10,22.5,22.3,22.5h44.5c12.3,0,22.3-10.2,22.3-22.5V193.4
		h22.3c9.4,0,17.7-5.8,20.9-14.6c3.2-8.8,0.6-18.6-6.6-24.7l-62.8-52.9C348.2,97.7,343.1,95.9,338,95.9L338,95.9z"/>
	<path class="st0" d="M389.6,416.1H103c-6.2,0-11.1-5-11.1-11.1c0-6.2,5-11.1,11.1-11.1h286.6c6.2,0,11.1,5,11.1,11.1
		C400.7,411.1,395.8,416.1,389.6,416.1z"/>
</g>
</svg>
