<?xml version="1.0" encoding="utf-8"?>
<!-- Generator: Adobe Illustrator 19.1.0, SVG Export Plug-In . SVG Version: 6.00 Build 0)  -->
<svg version="1.1" id="Layer_1" xmlns="http://www.w3.org/2000/svg" xmlns:xlink="http://www.w3.org/1999/xlink" x="0px" y="0px"
	 viewBox="0 0 512 512" style="enable-background:new 0 0 512 512;" xml:space="preserve">
<style type="text/css">
	.st0{fill:#2E323F;}
</style>
<g id="XMLID_389_">
	<path class="st0" d="M128.8,414.4c-36.9,0-66.9-30-66.9-66.9c0-36.9,30-66.9,66.9-66.9s66.9,30,66.9,66.9
		C195.6,384.4,165.6,414.4,128.8,414.4z M128.8,307.1c-22.3,0-40.5,18.2-40.5,40.5c0,22.3,18.2,40.5,40.5,40.5s40.5-18.1,40.5-40.5
		C169.2,325.2,151.1,307.1,128.8,307.1z"/>
	<path class="st0" d="M182.8,285.5c-3.4,0-6.8-1.3-9.3-3.9l-71.8-71.8c-3.8-3.8-4.9-9.5-2.9-14.4c2-4.9,6.9-8.2,12.2-8.2h84.1
		c7.3,0,13.2,5.9,13.2,13.2c0,7.3-5.9,13.2-13.2,13.2h-52.3l42.2,42.2L315,183.8c6.3-3.5,14.4-1.3,18,5.1c3.5,6.4,1.2,14.4-5.1,18
		l-138.6,77C187.2,285,185,285.5,182.8,285.5z"/>
	<path class="st0" d="M355.3,330.8c-5.2,0-10.2-3.1-12.3-8.3l-33.9-83.9c-0.6-1.6-1-3.2-1-5V124.4h-78.5c-7.3,0-13.2-5.9-13.2-13.2
		S222.4,98,229.7,98h91.7c7.3,0,13.2,5.9,13.2,13.2v119.9l33,81.5c2.7,6.8-0.5,14.5-7.3,17.2C358.7,330.4,357,330.8,355.3,330.8z"/>
	<path class="st0" d="M355.2,414.4c-52.7,0-95.6-42.9-95.6-95.6s42.9-95.6,95.6-95.6s95.6,42.9,95.6,95.6S408,414.4,355.2,414.4z
		 M355.2,249.5c-38.2,0-69.2,31.1-69.2,69.2s31.1,69.2,69.2,69.2s69.2-31.1,69.2-69.2S393.4,249.5,355.2,249.5z"/>
</g>
</svg>
