<?xml version="1.0" encoding="utf-8"?>
<!-- Generator: Adobe Illustrator 19.1.0, SVG Export Plug-In . SVG Version: 6.00 Build 0)  -->
<svg version="1.1" id="Layer_1" xmlns="http://www.w3.org/2000/svg" xmlns:xlink="http://www.w3.org/1999/xlink" x="0px" y="0px"
	 viewBox="0 0 512 512" style="enable-background:new 0 0 512 512;" xml:space="preserve">
<style type="text/css">
	.st0{fill:#2E323F;}
</style>
<g>
	<path class="st0" d="M329.5,272.7c-51.6,0-93.5-41.9-93.5-93.5c0-51.6,42-93.5,93.5-93.5s93.5,41.9,93.5,93.5
		C423,230.7,381.1,272.7,329.5,272.7z M329.5,115.3c-35.3,0-63.9,28.7-63.9,63.9s28.7,63.9,63.9,63.9c35.2,0,63.9-28.7,63.9-63.9
		S364.7,115.3,329.5,115.3z"/>
	<path class="st0" d="M103.8,423.5c-3.8,0-7.6-1.4-10.5-4.3c-5.8-5.8-5.8-15.1,0-20.9L265,226.6c5.8-5.8,15.1-5.8,20.9,0
		c5.8,5.8,5.8,15.1,0,20.9L114.3,419.1C111.4,422,107.6,423.5,103.8,423.5z"/>
	<path class="st0" d="M205.3,426.3c-3.8,0-7.6-1.4-10.5-4.3l-51.2-51.2c-5.8-5.8-5.8-15.1,0-20.9c5.8-5.8,15.1-5.8,20.9,0l51.2,51.2
		c5.8,5.8,5.8,15.1,0,20.9C212.8,424.9,209.1,426.3,205.3,426.3z"/>
	<path class="st0" d="M221.4,362.8c-3.8,0-7.6-1.4-10.5-4.3l-25.6-25.6c-5.8-5.8-5.8-15.1,0-20.9c5.8-5.8,15.1-5.8,20.9,0l25.6,25.6
		c5.8,5.8,5.8,15.1,0,20.9C229,361.3,225.2,362.8,221.4,362.8z"/>
</g>
</svg>
