<?xml version="1.0" encoding="utf-8"?>
<!-- Generator: Adobe Illustrator 18.1.1, SVG Export Plug-In . SVG Version: 6.00 Build 0)  -->
<svg version="1.1" id="Layer_1" xmlns="http://www.w3.org/2000/svg" xmlns:xlink="http://www.w3.org/1999/xlink" x="0px" y="0px"
	 viewBox="0 0 512 512" enable-background="new 0 0 512 512" xml:space="preserve">
<g>
	<path fill="#2E323F" d="M419.3,127.1L343.9,52l-0.3-0.4c-1.3-1.4-2.9-2.5-4.7-3.2c0,0-0.1,0-0.1,0c-0.8-0.3-1.7-0.6-2.5-0.8
		c0,0,0,0,0,0c-0.4-0.1-0.8-0.1-1.2-0.2c-0.1,0-0.1,0-0.2,0c-0.4,0-0.8-0.1-1.2-0.1c0,0,0,0,0,0h0c-0.1,0-0.1,0-0.2,0H102.5
		c-7.7,0-14,6.2-14,14v389.4c0,7.7,6.2,14,14,14h306.9c7.7,0,14-6.2,14-14V137C423.4,133.3,421.9,129.7,419.3,127.1z M376.5,125.9
		h-29.1V95.8L376.5,125.9z M116.5,436.7V75.3h203.1v64.5c0,7.7,6.2,14,14,14h62v283H116.5z"/>
	<path fill="#2E323F" d="M366.5,380.7H149.1c-7.7,0-14,6.2-14,14c0,7.7,6.2,14,14,14h217.4c7.7,0,14-6.2,14-14
		C380.4,387,374.2,380.7,366.5,380.7z"/>
	<path fill="#2E323F" d="M143.7,355.8c2.7,2.7,6.3,4.1,9.9,4.1c3.6,0,7.1-1.4,9.9-4.1l15.3-15.3l15.3,15.3c2.7,2.7,6.3,4.1,9.9,4.1
		c3.6,0,7.1-1.4,9.9-4.1c5.4-5.4,5.4-14.3,0-19.7l-15.3-15.3l15.3-15.3c5.4-5.4,5.4-14.3,0-19.7c-5.4-5.4-14.3-5.4-19.7,0
		l-15.3,15.3l-15.3-15.3c-5.4-5.4-14.3-5.4-19.7,0c-5.4,5.4-5.4,14.3,0,19.7l15.3,15.3l-15.3,15.3
		C138.3,341.5,138.3,350.4,143.7,355.8z"/>
</g>
</svg>
