<?xml version="1.0" encoding="utf-8"?>
<!-- Generator: Adobe Illustrator 19.1.0, SVG Export Plug-In . SVG Version: 6.00 Build 0)  -->
<svg version="1.0" id="Layer_1" xmlns="http://www.w3.org/2000/svg" xmlns:xlink="http://www.w3.org/1999/xlink" x="0px" y="0px"
	 viewBox="0 0 512 512" style="enable-background:new 0 0 512 512;" xml:space="preserve">
<style type="text/css">
	.st0{fill:#2E323F;}
</style>
<g id="XMLID_1066_">
	<path class="st0" d="M256,466.6c-1.1,0-2.2-0.1-3.2-0.4c-6.3-1.5-10.8-7.2-10.8-13.7V270H59.4c-6.5,0-12.2-4.5-13.7-10.8
		c-1.5-6.3,1.6-12.9,7.4-15.8L446.3,46.9c5.4-2.7,12-1.7,16.2,2.6c4.3,4.3,5.3,10.8,2.6,16.2L268.6,458.8
		C266.1,463.7,261.2,466.6,256,466.6z M118.9,242H256c7.8,0,14,6.3,14,14v137.1L421.2,90.8L118.9,242z"/>
</g>
</svg>
