<?xml version="1.0" encoding="utf-8"?>
<!-- Generator: Adobe Illustrator 18.1.1, SVG Export Plug-In . SVG Version: 6.00 Build 0)  -->
<svg version="1.1" id="Layer_1" xmlns="http://www.w3.org/2000/svg" xmlns:xlink="http://www.w3.org/1999/xlink" x="0px" y="0px"
	 viewBox="0 0 512 512" enable-background="new 0 0 512 512" xml:space="preserve">
<path fill="#2E323F" d="M386.8,102.5H125.3c-27.9,0-50.6,22.7-50.6,50.6v205.7c0,27.9,22.7,50.6,50.6,50.6h261.5
	c27.9,0,50.6-22.7,50.6-50.6V153.2C437.4,125.3,414.7,102.5,386.8,102.5z M102.5,200.2h306.9V242H102.5V200.2z M102.5,270h306.9
	v41.9H102.5V270z M125.3,130.4h261.5c12.5,0,22.7,10.2,22.7,22.7v19.1H102.5v-19.1C102.5,140.6,112.7,130.4,125.3,130.4z
	 M386.8,381.6H125.3c-12.5,0-22.7-10.2-22.7-22.7v-19.1h306.9v19.1C409.5,371.4,399.3,381.6,386.8,381.6z"/>
</svg>
