<?xml version="1.0" encoding="utf-8"?>
<!-- Generator: Adobe Illustrator 19.1.0, SVG Export Plug-In . SVG Version: 6.00 Build 0)  -->
<svg version="1.1" id="Layer_1" xmlns="http://www.w3.org/2000/svg" xmlns:xlink="http://www.w3.org/1999/xlink" x="0px" y="0px"
	 viewBox="-383 145 512 512" style="enable-background:new -383 145 512 512;" xml:space="preserve">
<style type="text/css">
	.st0{fill:#2E323F;}
</style>
<g>
	<path class="st0" d="M-139,447.5c-22.9,0-45.7-8.9-62.9-26.1c-16.8-16.8-26.1-39.1-26.1-62.9c0-23.8,9.2-46.1,26.1-62.9l36.6-36.6
		c33.6-33.6,92.2-33.6,125.8,0c27.9,27.9,34.1,71.4,15,105.9c-3.5,6.3-11.3,8.5-17.6,5.1c-6.2-3.4-8.5-11.3-5.1-17.6
		c13.5-24.5,9.1-55.3-10.6-75.1c-23.8-23.8-65.3-23.9-89.2,0l-36.6,36.6c-11.9,11.9-18.5,27.7-18.5,44.6c0,16.8,6.5,32.7,18.5,44.6
		c20.7,20.7,52.7,24.5,77.5,9.2c6.1-3.7,14.1-1.8,17.8,4.3c3.7,6.1,1.8,14.1-4.3,17.8C-106.9,443.2-123,447.5-139,447.5z"/>
	<path class="st0" d="M-150.5,568.6c-22.8,0-45.6-8.7-62.9-26c-28.5-28.5-34.3-72.7-14.1-107.6c3.6-6.2,11.5-8.3,17.7-4.7
		c6.2,3.6,8.3,11.5,4.7,17.7c-14.4,24.7-10.3,56.1,10,76.3c24.6,24.6,64.6,24.6,89.2,0l36.6-36.6c11.9-11.9,18.5-27.8,18.5-44.6
		c0-16.9-6.5-32.7-18.5-44.6c-19.7-19.8-49.6-24.3-74.2-11.1c-6.3,3.3-14.2,1-17.5-5.3c-3.4-6.3-1-14.1,5.3-17.5
		c34.9-18.5,76.9-12.2,104.7,15.6C-34.2,397-25,419.3-25,443.1c0,23.8-9.2,46.1-26.1,62.9l-36.6,36.6
		C-105,559.9-127.8,568.6-150.5,568.6z"/>
</g>
</svg>
