<?xml version="1.0" encoding="utf-8"?>
<!-- Generator: Adobe Illustrator 19.1.0, SVG Export Plug-In . SVG Version: 6.00 Build 0)  -->
<svg version="1.0" id="Layer_1" xmlns="http://www.w3.org/2000/svg" xmlns:xlink="http://www.w3.org/1999/xlink" x="0px" y="0px"
	 viewBox="0 0 512 512" style="enable-background:new 0 0 512 512;" xml:space="preserve">
<style type="text/css">
	.st0{fill:#2E323F;}
</style>
<g>
	<path class="st0" d="M472.7,99.5L331.2,37.9c-0.5-0.2-0.9-0.4-1.4-0.5c0,0,0,0,0,0c-0.3-0.1-0.7-0.2-1-0.3c-2.2-0.5-4.4-0.5-6.6,0
		c-0.3,0.1-0.6,0.1-0.9,0.2c-0.2,0.1-0.3,0.1-0.5,0.2c-0.3,0.1-0.5,0.2-0.8,0.3c0,0-0.1,0-0.1,0L184.2,97L48.5,37.9
		c-4.4-1.9-9.4-1.5-13.4,1.1c-4,2.6-6.4,7.1-6.4,11.8v328.7c0,5.6,3.3,10.7,8.5,13l141.3,61.6c3.4,1.5,7.2,1.6,10.6,0.3
		c0.3-0.1,0.5-0.2,0.8-0.3l86-37.5c16.2,26.6,30.8,47.6,34.4,52.7c2.7,3.8,7,6,11.6,6c4.6,0,8.9-2.3,11.6-6
		c3.7-5.2,19.1-27.5,35.9-55.3l92.1,40.1c1.8,0.8,3.8,1.2,5.7,1.2c2.7,0,5.4-0.8,7.8-2.3c4-2.6,6.4-7,6.4-11.8V112.5
		C481.3,106.8,477.9,101.7,472.7,99.5z M57,72.4l113.1,49.3v297.8L57,370.3V72.4z M198.4,419.6V121.7l113-49.3v124.4
		c-49.3,5.2-87.9,47.1-87.9,97.8c0,23.9,18.2,62.5,37.9,97.4L198.4,419.6z M321.9,436.1c-8.7-13.1-18.1-27.9-27.1-43.1c0,0,0,0,0,0
		c-0.5-1.1-1-2-1.7-2.9c-22.1-37.6-41.3-76.5-41.3-95.4c0-38.6,31.4-70.1,70.1-70.1c0.6,0,1.1,0,1.6,0c0.7,0.1,1.4,0.2,2.1,0.2
		c0.3,0,0.6,0,0.8,0c36.4,2.4,65.3,32.8,65.3,69.9c0,18.5-18.2,56-39.6,92.8c-0.7,0.9-1.2,1.8-1.7,2.8c0,0,0,0.1-0.1,0.1
		C341,406.5,331,422.2,321.9,436.1z M453,419.6l-69.3-30.2c19.1-34.2,36.3-71.4,36.3-94.7c0-48.1-34.7-88.3-80.3-96.7V72.4
		L453,121.7V419.6z"/>
	<path class="st0" d="M321.8,267.4c-14.4,0-26,11.6-26,26c0,14.3,11.6,26,26,26c14.3,0,25.9-11.8,25.9-26
		C347.8,279,336.1,267.4,321.8,267.4z"/>
</g>
</svg>
