<?xml version="1.0" encoding="utf-8"?>
<!-- Generator: Adobe Illustrator 19.1.0, SVG Export Plug-In . SVG Version: 6.00 Build 0)  -->
<svg version="1.1" id="Layer_1" xmlns="http://www.w3.org/2000/svg" xmlns:xlink="http://www.w3.org/1999/xlink" x="0px" y="0px"
	 viewBox="0 0 512 512" style="enable-background:new 0 0 512 512;" xml:space="preserve">
<style type="text/css">
	.st0{fill:#2E323F;}
</style>
<g>
	<path class="st0" d="M351.7,259.6c-4.8-4.8-12.4-4.8-17.2,0c-4.8,4.8-4.8,12.4,0,17.2l47.3,47.3H100.7c-6.7,0-12.1,5.4-12.1,12.1
		c0,6.7,5.4,12.2,12.1,12.2h281.1l-47.3,47.3c-4.8,4.8-4.8,12.4,0,17.2c2.3,2.3,5.5,3.6,8.6,3.6c3.1,0,6.2-1.2,8.6-3.6l68.1-68.1
		c2.3-2.3,3.6-5.4,3.6-8.6s-1.3-6.3-3.6-8.6L351.7,259.6z"/>
	<path class="st0" d="M411.2,163.6H130.1l47.3-47.3c4.8-4.8,4.8-12.4,0-17.2c-4.8-4.8-12.4-4.8-17.2,0l-68.1,68.1
		c-2.3,2.3-3.6,5.4-3.6,8.6c0,3.2,1.3,6.3,3.6,8.6l68.1,68.1c2.3,2.3,5.5,3.6,8.6,3.6c3.1,0,6.2-1.2,8.6-3.6
		c4.8-4.8,4.8-12.4,0-17.2L130.1,188h281.1c6.7,0,12.1-5.4,12.1-12.1S417.9,163.6,411.2,163.6z"/>
</g>
</svg>
