<?xml version="1.0" encoding="utf-8"?>
<!-- Generator: Adobe Illustrator 18.1.1, SVG Export Plug-In . SVG Version: 6.00 Build 0)  -->
<svg version="1.1" id="Layer_1" xmlns="http://www.w3.org/2000/svg" xmlns:xlink="http://www.w3.org/1999/xlink" x="0px" y="0px"
	 viewBox="0 0 512 512" enable-background="new 0 0 512 512" xml:space="preserve">
<g>
	<g>
		<g>
			<path fill="#2E323F" d="M288,306l-19.8-135.3c-0.1-0.5-0.5-0.9-1-0.9h-26.1c-0.4,0-0.8,0.2-0.9,0.6l-62,126.4
				c-0.4,0.8-1.5,0.8-1.8,0l-62.6-126.4c-0.2-0.4-0.5-0.6-0.9-0.6H86.5c-0.5,0-0.9,0.4-1,0.9l-25,170.5c-0.1,0.6,0.4,1.2,1,1.2H92
				c0.5,0,1-0.4,1-0.9l15.1-110.8c0.1-1,1.5-1.2,1.9-0.3l55.3,111.5c0.2,0.4,0.5,0.6,0.9,0.6h21.6c0.4,0,0.8-0.2,0.9-0.6l54.6-110.9
				c0.4-0.9,1.8-0.7,1.9,0.3L260.1,338c0.1,0.9,1.3,1.2,1.8,0.5l25.8-31.8C287.9,306.5,288,306.2,288,306z"/>
		</g>
		<g>
			<path fill="#2E323F" d="M450.8,169.7h-39.2c-0.2,0-0.4,0.1-0.5,0.3l-46.3,60.5c-0.3,0.3-0.8,0.3-1,0L317.5,170
				c-0.1-0.2-0.3-0.3-0.5-0.3h-39.2c-0.5,0-0.9,0.6-0.5,1.1l66.3,84.8c0.2,0.2,0.2,0.6,0,0.8l-66.3,84.8c-0.3,0.4,0,1.1,0.5,1.1H317
				c0.2,0,0.4-0.1,0.5-0.3l46.3-60.5c0.3-0.3,0.8-0.3,1,0l46.3,60.5c0.1,0.2,0.3,0.3,0.5,0.3h39.2c0.5,0,0.9-0.6,0.5-1.1l-66.3-84.8
				c-0.2-0.2-0.2-0.6,0-0.8l66.3-84.8C451.7,170.4,451.4,169.7,450.8,169.7z"/>
		</g>
	</g>
</g>
</svg>
