<?xml version="1.0" encoding="utf-8"?>
<!-- Generator: Adobe Illustrator 18.1.1, SVG Export Plug-In . SVG Version: 6.00 Build 0)  -->
<svg version="1.1" id="Layer_1" xmlns="http://www.w3.org/2000/svg" xmlns:xlink="http://www.w3.org/1999/xlink" x="0px" y="0px"
	 viewBox="0 0 512 512" enable-background="new 0 0 512 512" xml:space="preserve">
<g>
	<g>
		<path fill="#2E323F" d="M369.1,474.6H142.9c-29.9,0-54.3-24.4-54.3-54.3V91.8c0-29.9,24.4-54.3,54.3-54.3h226.2
			c29.9,0,54.3,24.4,54.3,54.3v328.5C423.4,450.2,399.1,474.6,369.1,474.6z M142.9,65.3c-14.6,0-26.4,11.9-26.4,26.4v328.5
			c0,14.6,11.9,26.4,26.4,26.4h226.2c14.6,0,26.4-11.9,26.4-26.4V91.8c0-14.6-11.9-26.4-26.4-26.4H142.9z"/>
	</g>
	<g>
		<circle fill="#2E323F" cx="255.3" cy="390.5" r="27.9"/>
	</g>
</g>
</svg>
