<?xml version="1.0" encoding="utf-8"?>
<!-- Generator: Adobe Illustrator 19.1.0, SVG Export Plug-In . SVG Version: 6.00 Build 0)  -->
<svg version="1.1" id="Layer_1" xmlns="http://www.w3.org/2000/svg" xmlns:xlink="http://www.w3.org/1999/xlink" x="0px" y="0px"
	 viewBox="0 0 512 512" style="enable-background:new 0 0 512 512;" xml:space="preserve">
<style type="text/css">
	.st0{fill:#2E323F;}
</style>
<path class="st0" d="M405.1,111.7c-25.4,0-46,20.8-46,46.2c0,15,7.3,28.5,18.4,37.2L339,286.5c-2.2-0.4-4.9-0.7-7.3-0.7
	c-8.9,0-17,2.4-23.9,6.6l-65.9-66.4c4-7.1,6.4-15,6.4-23.7c0-25.4-20.8-46.2-46.2-46.2c-25.4,0-46.2,20.8-46.2,46.2
	c0,12.2,4.6,23.5,12.4,31.6L121,310.2c-4.4-1.5-9.3-2.2-14.2-2.2c-25.7,0-46.2,20.6-46.2,46c0,25.7,20.6,46.2,46.2,46.2
	c25.4,0,46.2-20.6,46.2-46.2c0-12.8-5.1-24.1-13.3-32.3L187,246c4.6,1.8,9.7,2.7,15,2.7c8.8,0,17-2.4,24.1-6.9l65.9,66.2
	c-4.2,7.1-6.6,15.3-6.6,24.1c0,25.4,20.8,46.2,46.2,46.2c25.4,0,46.2-20.8,46.2-46.2c0-15.3-7.3-28.8-18.6-37.2l38.7-91.4
	c2.2,0.4,4.6,0.7,7.1,0.7c25.7,0,46.2-20.8,46.2-46.2C451.4,132.5,430.8,111.7,405.1,111.7z M131,354c0,13.5-10.8,24.1-24.1,24.1
	c-13.3,0-24.1-10.6-24.1-24.1c0-13.3,10.8-23.9,24.1-23.9c0.4,0,1.1,0,1.5,0.2c8.2,0.4,15.3,4.9,19,11.5
	C129.7,345.4,131,349.6,131,354z M202,226.6c-0.9,0-2,0-2.9-0.2c-8-0.9-14.8-6-18.4-12.8c-2-3.3-2.9-7.1-2.9-11.1
	c0-13.3,10.8-24.1,24.1-24.1c13.3,0,24.1,10.8,24.1,24.1c0,2.4-0.4,4.6-1.1,6.9c-2.2,7.5-8,13.5-15.3,15.9
	C207.3,226.1,204.7,226.6,202,226.6z M355.8,332.1c0,13.3-10.8,24.1-24.1,24.1c-13.3,0-24.1-10.8-24.1-24.1c0-2.7,0.4-5.1,1.3-7.3
	c2.2-7.5,8.2-13.5,15.7-15.5c1.5-0.9,3.5-1.1,5.3-1.1c0.7-0.2,1.1-0.2,1.8-0.2c7.5,0,14.2,3.5,18.4,8.9
	C353.8,321,355.8,326.4,355.8,332.1z M407.1,181.9c-0.7,0.2-1.3,0.2-2,0.2c-7.5,0-14.2-3.5-18.4-8.8c-3.5-4.2-5.5-9.5-5.5-15.3
	c0-13.3,10.6-24.1,23.9-24.1c13.5,0,24.1,10.8,24.1,24.1C429.2,170.6,419.7,181,407.1,181.9z"/>
</svg>
