<?xml version="1.0" encoding="utf-8"?>
<!-- Generator: Adobe Illustrator 19.1.0, SVG Export Plug-In . SVG Version: 6.00 Build 0)  -->
<svg version="1.1" id="Layer_1" xmlns="http://www.w3.org/2000/svg" xmlns:xlink="http://www.w3.org/1999/xlink" x="0px" y="0px"
	 viewBox="0 0 512 512" style="enable-background:new 0 0 512 512;" xml:space="preserve">
<style type="text/css">
	.st0{fill:#2E323F;}
</style>
<path class="st0" d="M374.4,137.6L374.4,137.6c-31.6-31.6-73.7-49-118.4-49s-86.7,17.4-118.4,49c-31.6,31.6-49,73.7-49,118.4
	s17.4,86.7,49,118.4c31.6,31.6,73.6,49,118.4,49s86.7-17.4,118.4-49c31.6-31.6,49-73.6,49-118.4C423.4,211.3,406,169.3,374.4,137.6
	L374.4,137.6z M155.9,155.9c27.5-27.6,63.8-41.5,100.1-41.5c32.2,0,64.4,10.9,90.5,32.7L147.2,346.5
	C100.9,291,103.8,208,155.9,155.9z M356.1,356.1c-52.1,52.1-135.1,55-190.7,8.7l199.3-199.3C411.1,221,408.2,304,356.1,356.1z"/>
</svg>
