<?xml version="1.0" encoding="utf-8"?>
<!-- Generator: Adobe Illustrator 18.1.1, SVG Export Plug-In . SVG Version: 6.00 Build 0)  -->
<svg version="1.1" id="Layer_1" xmlns="http://www.w3.org/2000/svg" xmlns:xlink="http://www.w3.org/1999/xlink" x="0px" y="0px"
	 viewBox="0 0 512 512" enable-background="new 0 0 512 512" xml:space="preserve">
<g>
	<path fill="#2E323F" d="M256,88.6c-92.3,0-167.4,75.1-167.4,167.4S163.7,423.4,256,423.4S423.4,348.3,423.4,256
		S348.3,88.6,256,88.6z M256,397.6c-78.1,0-141.6-63.5-141.6-141.6S177.9,114.4,256,114.4S397.6,177.9,397.6,256
		S334.1,397.6,256,397.6z"/>
	<path fill="#2E323F" d="M224.7,172.8c-4-2.6-9.1-2.8-13.2-0.5c-4.1,2.2-6.7,6.6-6.7,11.3v144.8c0,4.7,2.6,9.1,6.7,11.3
		c1.9,1.1,4,1.6,6.1,1.6c2.5,0,4.9-0.7,7-2.1l110.9-72.4c3.6-2.4,5.8-6.4,5.8-10.8c0-4.4-2.2-8.4-5.8-10.8L224.7,172.8z
		 M230.6,304.6v-97.3l74.5,48.6L230.6,304.6z"/>
</g>
</svg>
