<?xml version="1.0" encoding="utf-8"?>
<!-- Generator: Adobe Illustrator 19.1.0, SVG Export Plug-In . SVG Version: 6.00 Build 0)  -->
<svg version="1.1" id="Layer_1" xmlns="http://www.w3.org/2000/svg" xmlns:xlink="http://www.w3.org/1999/xlink" x="0px" y="0px"
	 viewBox="0 0 512 512" style="enable-background:new 0 0 512 512;" xml:space="preserve">
<style type="text/css">
	.st0{fill:#2E323F;}
</style>
<g>
	<path class="st0" d="M250.1,455.4c-0.8,0-1.8-0.1-2.6-0.3c-5.2-1.2-8.9-5.8-8.9-11.2V270.5H65.2c-5.4,0-10-3.7-11.2-8.9
		c-1.2-5.2,1.3-10.6,6-12.9L427.8,65.8c4.4-2.2,9.8-1.3,13.2,2.2c3.5,3.5,4.3,8.9,2.2,13.2L260.3,448.9
		C258.5,452.9,254.4,455.4,250.1,455.4z M114.1,247.4h135.9c6.3,0,11.5,5.2,11.5,11.5v135.9l145.8-293.2L114.1,247.4z"/>
</g>
</svg>
