<?xml version="1.0" encoding="utf-8"?>
<!-- Generator: Adobe Illustrator 19.1.0, SVG Export Plug-In . SVG Version: 6.00 Build 0)  -->
<svg version="1.0" id="Layer_1" xmlns="http://www.w3.org/2000/svg" xmlns:xlink="http://www.w3.org/1999/xlink" x="0px" y="0px"
	 viewBox="0 0 512 512" style="enable-background:new 0 0 512 512;" xml:space="preserve">
<style type="text/css">
	.st0{fill:#2E323F;}
</style>
<path id="XMLID_1080_" class="st0" d="M256.2,57.6c-87,0-157.8,70.8-157.8,157.8c0,84.2,141.6,228.6,147.6,234.7
	c2.7,2.7,6.4,4.3,10.2,4.3c3.8,0,7.5-1.5,10.2-4.3c6-6.1,147.3-150.5,147.3-234.7C413.7,128.4,343,57.6,256.2,57.6z M313.5,213.4
	c0,31.8-25.7,57.7-57.3,57.7c-31.8,0-57.7-25.9-57.7-57.7s25.9-57.7,57.7-57.7C287.8,155.7,313.5,181.5,313.5,213.4z"/>
</svg>
