<?xml version="1.0" encoding="utf-8"?>
<!-- Generator: Adobe Illustrator 19.1.0, SVG Export Plug-In . SVG Version: 6.00 Build 0)  -->
<svg version="1.0" id="Layer_1" xmlns="http://www.w3.org/2000/svg" xmlns:xlink="http://www.w3.org/1999/xlink" x="0px" y="0px"
	 viewBox="0 0 512 512" style="enable-background:new 0 0 512 512;" xml:space="preserve">
<style type="text/css">
	.st0{fill:#2E323F;}
</style>
<g id="XMLID_1076_">
	<g id="XMLID_1077_">
		<path class="st0" d="M256.1,454.4c-3.8,0-7.5-1.5-10.2-4.3c-6-6.1-147.6-150.5-147.6-234.7c0-87,70.8-157.8,157.8-157.8
			c86.9,0,157.5,70.8,157.5,157.8c0,84.2-141.3,228.6-147.3,234.7C263.7,452.8,260,454.4,256.1,454.4
			C256.1,454.4,256.1,454.4,256.1,454.4z M256.1,86.3c-71.2,0-129.1,57.9-129.1,129.1c0,55.5,85.4,157.5,129.1,203.9
			C299.8,372.9,385,270.9,385,215.4C385,144.2,327.2,86.3,256.1,86.3z M256.1,285.4c-39.7,0-72-32.3-72-72c0-39.7,32.3-72,72-72
			c39.6,0,71.7,32.3,71.7,72C327.9,253.1,295.7,285.4,256.1,285.4z M256.1,170c-23.9,0-43.4,19.4-43.4,43.3s19.5,43.4,43.4,43.4
			c23.7,0,43.1-19.5,43.1-43.4S279.9,170,256.1,170z"/>
	</g>
</g>
</svg>
