<?xml version="1.0" encoding="utf-8"?>
<!-- Generator: Adobe Illustrator 18.1.1, SVG Export Plug-In . SVG Version: 6.00 Build 0)  -->
<svg version="1.1" id="Layer_1" xmlns="http://www.w3.org/2000/svg" xmlns:xlink="http://www.w3.org/1999/xlink" x="0px" y="0px"
	 viewBox="0 0 512 512" enable-background="new 0 0 512 512" xml:space="preserve">
<g>
	<polygon fill="#2E323F" points="230.6,304.6 305.1,256 230.6,207.4 	"/>
	<path fill="#2E323F" d="M256,88.6c-92.3,0-167.4,75.1-167.4,167.4c0,92.3,75.1,167.4,167.4,167.4S423.4,348.3,423.4,256
		C423.4,163.7,348.3,88.6,256,88.6z M335.6,266.8l-110.9,72.4c-2.1,1.4-4.6,2.1-7,2.1c-2.1,0-4.2-0.5-6.1-1.6
		c-4.2-2.2-6.7-6.6-6.7-11.3V183.6c0-4.7,2.6-9.1,6.7-11.3c4.1-2.3,9.2-2,13.2,0.5l110.9,72.4c3.6,2.4,5.8,6.4,5.8,10.8
		C341.5,260.4,339.3,264.4,335.6,266.8z"/>
</g>
</svg>
