<?xml version="1.0" encoding="utf-8"?>
<!-- Generator: Adobe Illustrator 19.1.0, SVG Export Plug-In . SVG Version: 6.00 Build 0)  -->
<svg version="1.0" id="Layer_1" xmlns="http://www.w3.org/2000/svg" xmlns:xlink="http://www.w3.org/1999/xlink" x="0px" y="0px"
	 viewBox="0 0 512 512" style="enable-background:new 0 0 512 512;" xml:space="preserve">
<style type="text/css">
	.st0{fill:#2E323F;}
</style>
<g>
	<path class="st0" d="M356.2,123.2c-6.4,0-12.7,0.8-18.9,1.9c-28.5-41.8-76.4-69.4-130.6-69.4c-87.3,0-158.4,71-158.4,158.4
		c0,84.6,142.5,229.9,148.5,236c2.6,2.6,6.1,4.1,9.8,4.1c0,0,0,0,0,0c3.7,0,7.2-1.5,9.8-4.1c3.5-3.5,51.6-52.8,92.1-110.1
		c19.7,24.1,37,41.8,37.8,42.6c2.6,2.6,6.1,4.1,9.8,4.1s7.2-1.5,9.8-4.1c9.8-9.9,95.8-98.8,95.8-153.7
		C461.8,170.7,414.4,123.2,356.2,123.2z M206.6,420.6C162.6,374,75.8,270.4,75.8,214.1c0-72.1,58.7-130.8,130.8-130.8
		c72,0,130.5,58.7,130.5,130.8C337.1,270.4,250.5,374,206.6,420.6z M356.2,353c-7.9-8.6-19.6-21.9-31.6-37
		c22.7-35.7,40.1-72.5,40.1-101.9c0-22.3-4.7-43.5-13-62.7c1.5-0.1,3-0.6,4.5-0.6c43,0,78,35.1,78,78.2
		C434.2,261.7,384.6,322.3,356.2,353z"/>
	<path class="st0" d="M206.6,140.1c-39.7,0-71.9,32.3-71.9,71.9s32.3,71.9,71.9,71.9c39.5,0,71.6-32.2,71.6-71.9
		S246.1,140.1,206.6,140.1z M206.6,256.4c-24.4,0-44.3-19.9-44.3-44.3s19.9-44.3,44.3-44.3c24.3,0,44,19.9,44,44.3
		S230.9,256.4,206.6,256.4z"/>
</g>
</svg>
