<?xml version="1.0" encoding="utf-8"?>
<!-- Generator: Adobe Illustrator 19.0.0, SVG Export Plug-In . SVG Version: 6.00 Build 0)  -->
<svg version="1.0" id="Layer_1" xmlns="http://www.w3.org/2000/svg" xmlns:xlink="http://www.w3.org/1999/xlink" x="0px" y="0px"
	 viewBox="96 245 512 512" enable-background="new 96 245 512 512" xml:space="preserve">
<path fill="#2E323F" d="M538,594.9c-6-4.2-70.6-47.2-78.3-51.9c-9.3-5.7-22.5-5-35.4,1.8c-5.6,2.9-21.9,12.2-31.7,17.8
	c-9-6.6-27.1-21-54.1-48c-27-27-41.5-45.2-48-54.1c5.6-9.8,14.9-26.2,17.8-31.7c6.9-13.1,7.6-26.4,1.7-35.6
	c-4.7-7.3-47.4-72.1-51.9-78.3c-8.1-11.2-27.6-15.9-44.8-3.9c-0.6,0.4-59.2,42-58.3,68.6c1.7,53.8,42.1,120.6,120.1,198.6
	s144.8,118.4,198.8,120.1c0.2,0,0.4,0,0.6,0c26.2,0,67.3-57.7,67.7-58.3c5.3-7.5,7.8-16.3,7-24.6C548.3,606.7,544.3,599.3,538,594.9
	z M518.9,623.7c-11.1,15.8-37.2,44.1-44.6,46.3c-57.8-1.8-129.5-61.9-179.6-111.9c-50-50-110-121.8-111.9-178.6
	c2.2-8.4,30.6-34.5,46.4-45.5c3.6-2.5,6.2-2.1,5.8-2.8c4.2,5.7,46.5,70,50.5,76.1c0.2,0.9-0.2,4-2.4,8.3c-4.2,8-21.7,38.5-21.7,38.5
	c-2.5,4.4-2.5,9.8,0.1,14.1c0.6,0.9,13.9,23.3,56.8,66.2c42.9,42.9,65.3,56.3,66.2,56.8c4.3,2.6,9.7,2.6,14.1,0.1
	c0,0,30.5-17.5,38.6-21.7c4.6-2.4,7.7-2.5,7.6-2.7c7.5,4.6,71.9,47.5,75.9,49.9C521.1,617.6,521.4,620.2,518.9,623.7z"/>
</svg>
