<?xml version="1.0" encoding="utf-8"?>
<!-- Generator: Adobe Illustrator 19.1.0, SVG Export Plug-In . SVG Version: 6.00 Build 0)  -->
<svg version="1.1" id="Layer_1" xmlns="http://www.w3.org/2000/svg" xmlns:xlink="http://www.w3.org/1999/xlink" x="0px" y="0px"
	 viewBox="0 0 512 512" style="enable-background:new 0 0 512 512;" xml:space="preserve">
<style type="text/css">
	.st0{fill:#2E323F;}
</style>
<g transform="translate(480 1560)">
	<path class="st0" d="M-31.8-1242.3l-45.7-53.3c-5.1-6-12.4-9.5-20-9.6c-7.6-0.2-15,3.1-20.4,8.8l-39.5,42.4
		c-4.7-7.1-10.7-13.2-17.7-18.2c-11.5-8.1-25-12.3-39.1-12.3c-15,0-29.2,4.8-41.1,13.8c-7.2,5.5-13.3,12.4-17.9,20.3l-37.8-44.9
		c-5.1-6.1-12.4-9.6-20-9.7c-7.6-0.1-14.9,3.2-20.2,9.2l-64.9,73c-3.6,4-3.2,10.2,0.8,13.7c4,3.6,10.2,3.2,13.7-0.8l64.9-73
		c1.5-1.7,3.4-2.7,5.4-2.6c1.9,0,3.8,1,5.3,2.8l143.1,169.9c1.9,2.3,4.7,3.5,7.4,3.5c2.2,0,4.4-0.8,6.3-2.3
		c4.1-3.5,4.6-9.6,1.2-13.7l-39.3-46.7l53.6-57.4c0.8-0.6,1.4-1.3,1.9-2.1l48-51.4c1.6-1.7,3.7-2.7,5.8-2.6c2.1,0,4.1,1.1,5.7,2.9
		l45.7,53.3c3.5,4.1,9.6,4.6,13.7,1C-28.8-1232-28.4-1238.2-31.8-1242.3z M-259.5-1234.3c7.2-18.3,25.3-30.8,45.3-30.8
		c18,0,34.6,10.2,43,25.9l-48.6,52L-259.5-1234.3z"/>
	<path class="st0" d="M-214.3-1304c-5.4,0-9.7-4.4-9.7-9.7v-19.4c0-5.4,4.3-9.7,9.7-9.7c5.4,0,9.7,4.3,9.7,9.7v19.4
		C-204.6-1308.4-208.9-1304-214.3-1304z"/>
	<path class="st0" d="M-165.7-1284.6c-2.5,0-5-1-6.9-2.8c-3.8-3.8-3.8-10,0-13.8l19.4-19.4c3.8-3.8,10-3.8,13.7,0
		c3.8,3.8,3.8,10,0,13.8l-19.4,19.4C-160.7-1285.5-163.2-1284.6-165.7-1284.6L-165.7-1284.6z"/>
	<path class="st0" d="M-262.9-1284.6c-2.5,0-5-1-6.9-2.8l-19.4-19.4c-3.8-3.8-3.8-10,0-13.8c3.8-3.8,10-3.8,13.7,0l19.4,19.4
		c3.8,3.8,3.8,10,0,13.8C-257.9-1285.5-260.4-1284.5-262.9-1284.6L-262.9-1284.6z"/>
	<path class="st0" d="M-136.6-1459.5c-1.3,0-2.5-0.2-3.7-0.8c-3.6-1.6-5.9-5-5.9-9c0-0.9-0.4-3.6-1.6-5.8c-1.1-2-2.9-4-8.1-4
		c-5.4,0-9.7-4.4-9.7-9.7c0-5.4,4.3-9.7,9.7-9.7c12.1,0,19.9,5.6,24.3,12.6c8.6-6,21-12.6,34-12.6c5.4,0,9.7,4.3,9.7,9.7
		c0,5.4-4.4,9.7-9.7,9.7c-12.5,0-27.4,12-32,16.6C-131.5-1460.6-134.1-1459.5-136.6-1459.5z"/>
	<path class="st0" d="M-243.5-1459.6c-1.1,0-2.2,0.1-3.3,0.1c-8-22.7-29.7-39-55.1-39c-18.8,0-36.4,9.2-47.3,24.1
		c-6.4-3.1-13.5-4.7-20.8-4.7c-26.8,0-48.6,21.8-48.6,48.6c0,26.8,21.8,48.6,48.6,48.6h126.4c21.4,0,38.9-17.4,38.9-38.9
		C-204.6-1442.2-222-1459.6-243.5-1459.6z M-243.5-1401.3h-126.4c-16.1,0-29.2-13.1-29.2-29.2c0-16.1,13.1-29.2,29.2-29.2
		c8.4,0,16.3,3.6,21.9,9.9c3.6,4,9.7,4.4,13.7,0.9c4-3.6,4.4-9.7,0.9-13.7c0,0-0.1-0.1-0.1-0.1c7.2-10.1,19-16.4,31.7-16.4
		c21.4,0,38.9,17.4,38.9,38.9c0,5.4,4.3,9.7,9.7,9.7c5.4,0,9.7-4.4,9.7-9.7c10.7,0,19.4,8.7,19.4,19.4S-232.7-1401.3-243.5-1401.3z"
		/>
	<path class="st0" d="M-78.3-1420.6c-1.3,0-2.5-0.2-3.7-0.8c-3.6-1.6-5.9-5-5.9-9c0-0.9-0.4-3.6-1.6-5.8c-1.1-2-2.9-4-8.1-4
		c-5.4,0-9.7-4.4-9.7-9.7c0-5.4,4.3-9.7,9.7-9.7c12.1,0,19.9,5.6,24.3,12.6c8.6-6,21-12.6,34-12.6c5.4,0,9.7,4.3,9.7,9.7
		c0,5.4-4.4,9.7-9.7,9.7c-12.5,0-27.4,12-32,16.6C-73.2-1421.7-75.7-1420.6-78.3-1420.6z"/>
	<path class="st0" d="M-136.6-1362.3c-1.3,0-2.5-0.2-3.7-0.8c-3.6-1.6-5.9-5-5.9-9c0-0.9-0.4-3.6-1.6-5.8c-1.1-2-2.9-4-8.1-4
		c-5.4,0-9.7-4.4-9.7-9.7c0-5.4,4.3-9.7,9.7-9.7c12.1,0,19.9,5.6,24.3,12.6c8.6-6,21-12.6,34-12.6c5.4,0,9.7,4.3,9.7,9.7
		c0,5.4-4.4,9.7-9.7,9.7c-12.5,0-27.4,12-32,16.6C-131.5-1363.3-134.1-1362.3-136.6-1362.3z"/>
</g>
</svg>
