<?xml version="1.0" encoding="utf-8"?>
<!-- Generator: Adobe Illustrator 19.1.0, SVG Export Plug-In . SVG Version: 6.00 Build 0)  -->
<svg version="1.1" id="Layer_1" xmlns="http://www.w3.org/2000/svg" xmlns:xlink="http://www.w3.org/1999/xlink" x="0px" y="0px"
	 viewBox="-256 512 512 512" style="enable-background:new -256 512 512 512;" xml:space="preserve">
<style type="text/css">
	.st0{fill:#2E323F;}
</style>
<g>
	<path class="st0" d="M15.6,715.7H-68c-5.8,0-10.5-4.7-10.5-10.5s4.7-10.5,10.5-10.5h83.7c5.8,0,10.5,4.7,10.5,10.5
		S21.4,715.7,15.6,715.7z"/>
	<path class="st0" d="M15.6,799.4H-68c-5.8,0-10.5-4.7-10.5-10.5c0-5.8,4.7-10.5,10.5-10.5h83.7c5.8,0,10.5,4.7,10.5,10.5
		C26.1,794.7,21.4,799.4,15.6,799.4z"/>
	<path class="st0" d="M-5.3,757.5H-68c-5.8,0-10.5-4.7-10.5-10.5s4.7-10.5,10.5-10.5h62.8c5.8,0,10.5,4.7,10.5,10.5
		S0.5,757.5-5.3,757.5z"/>
	<path class="st0" d="M-5.3,841.3H-68c-5.8,0-10.5-4.7-10.5-10.5s4.7-10.5,10.5-10.5h62.8c5.8,0,10.5,4.7,10.5,10.5
		S0.5,841.3-5.3,841.3z"/>
	<path class="st0" d="M68,715.7H57.5c-5.8,0-10.5-4.7-10.5-10.5s4.7-10.5,10.5-10.5H68c5.8,0,10.5,4.7,10.5,10.5
		S73.7,715.7,68,715.7z"/>
	<path class="st0" d="M68,799.4H57.5c-5.8,0-10.5-4.7-10.5-10.5c0-5.8,4.7-10.5,10.5-10.5H68c5.8,0,10.5,4.7,10.5,10.5
		C78.4,794.7,73.7,799.4,68,799.4z"/>
	<path class="st0" d="M68,757.5H57.5c-5.8,0-10.5-4.7-10.5-10.5s4.7-10.5,10.5-10.5H68c5.8,0,10.5,4.7,10.5,10.5
		S73.7,757.5,68,757.5z"/>
	<path class="st0" d="M68,841.3H57.5c-5.8,0-10.5-4.7-10.5-10.5s4.7-10.5,10.5-10.5H68c5.8,0,10.5,4.7,10.5,10.5
		S73.7,841.3,68,841.3z"/>
	<path class="st0" d="M-78.1,935.4c-2.7,0-5.3-1-7.3-3l-31.7-31.1c-2-2-3.1-4.7-3.1-7.5V611.1c0-3.9,2.1-7.4,5.5-9.2
		c3.4-1.8,7.5-1.6,10.7,0.5l25.6,17l25.5-17c3.5-2.3,8.1-2.3,11.6,0l25.6,17l25.5-17c3.5-2.3,8.1-2.3,11.6,0l25.6,17l25.5-17
		c4.1-2.7,9.6-2.2,13.1,1.2l31.7,31.2c2,2,3.1,4.7,3.1,7.5v282.7c0,3.9-2.1,7.4-5.5,9.2c-3.4,1.8-7.5,1.6-10.7-0.5l-25.6-17
		l-25.5,17c-3.5,2.3-8.1,2.3-11.6,0l-25.6-17l-25.5,17c-3.5,2.3-8.1,2.3-11.6,0l-25.6-17l-25.5,17
		C-74.1,934.8-76.1,935.4-78.1,935.4z M15.8,893.6c2,0,4,0.6,5.8,1.7l25.6,17l25.5-17c3.5-2.3,8.1-2.3,11.6,0l15.1,10.1V646.6
		l-22.6-22.1l-24.2,16.2c-3.5,2.3-8.1,2.3-11.6,0l-25.6-17l-25.5,17c-3.5,2.3-8.1,2.3-11.6,0l-25.6-17l-25.5,17
		c-3.5,2.3-8.1,2.3-11.6,0l-15.1-10.1v258.8l22.5,22.1l24.2-16.1c3.5-2.3,8.1-2.3,11.6,0l25.6,17l25.5-17
		C11.7,894.2,13.8,893.6,15.8,893.6z"/>
</g>
</svg>
