<?xml version="1.0" encoding="utf-8"?>
<!-- Generator: Adobe Illustrator 19.1.0, SVG Export Plug-In . SVG Version: 6.00 Build 0)  -->
<svg version="1.0" id="Layer_1" xmlns="http://www.w3.org/2000/svg" xmlns:xlink="http://www.w3.org/1999/xlink" x="0px" y="0px"
	 viewBox="0 0 512 512" style="enable-background:new 0 0 512 512;" xml:space="preserve">
<style type="text/css">
	.st0{fill:#2E323F;}
</style>
<g>
	<path class="st0" d="M457.6,68.1c-0.5-7.7-6.7-13.9-14.4-14.4c-7.3-0.5-46.3-1.8-98,20.9c-29.1,12.8-57.1,30.9-83.2,54
		c-29.9,26.3-57.6,59.2-82.5,97.8c-33.5-1.4-57,0.4-58,0.5c-3.7,0.3-7.1,1.9-9.7,4.5l-44.1,44.1c-4,4-5.5,9.8-4,15.2
		c1.5,5.4,5.9,9.6,11.3,10.9l50.3,12l-6.9,23.1c-1.6,5.5-0.1,11.4,3.9,15.4l37.1,37.1c4,4,9.9,5.5,15.4,3.9l23.1-6.9l12,50.3
		c1.3,5.5,5.5,9.8,10.9,11.3c1.4,0.4,2.8,0.6,4.2,0.6c4.1,0,8-1.6,11-4.5l44.1-44.1c2.6-2.6,4.2-6.1,4.5-9.7
		c0.1-1.1,1.9-24.5,0.5-58c38.6-24.8,71.5-52.5,97.8-82.5c23-26.2,41.2-54.2,54-83.2C459.5,114.4,458.1,75.4,457.6,68.1z
		 M408.3,153.7c-11.5,26.1-27.9,51.5-48.9,75.2c-26.1,29.6-59.2,57-98.6,81.5c-4.8,3-7.6,8.4-7.3,14c1.5,26.4,0.8,47.7,0.4,57.4
		l-20.4,20.4l-9.3-39.2c-1-4.1-3.6-7.7-7.3-9.8c-2.4-1.4-5.1-2.1-7.7-2.1c-1.5,0-3,0.2-4.4,0.6l-30,9l-24-24l9-30
		c1.2-4.1,0.7-8.5-1.4-12.2c-2.1-3.7-5.7-6.3-9.8-7.3l-39.2-9.3l20.4-20.4c9.6-0.5,30.9-1.2,57.4,0.4c5.7,0.3,11.1-2.5,14-7.3
		c24.5-39.4,51.9-72.6,81.5-98.6c23.8-20.9,49.1-37.4,75.2-48.9c29.6-13,54-17,68.8-18.1C425.3,99.6,421.3,124.1,408.3,153.7z"/>
	<path class="st0" d="M126.7,401.4l-28.9,12.1l12.1-28.9c3.3-7.9-0.4-17-8.3-20.3c-7.9-3.3-17,0.4-20.3,8.3l-26.8,63.9
		c-2.4,5.8-1.1,12.5,3.3,17c3,3,6.9,4.5,11,4.5c2,0,4.1-0.4,6-1.2l63.9-26.8c7.9-3.3,11.6-12.4,8.3-20.3
		C143.7,401.8,134.6,398.1,126.7,401.4z"/>
	<path class="st0" d="M299.6,168.1c-11.7,0-22.7,4.5-30.9,12.8c-8.3,8.3-12.8,19.2-12.8,30.9s4.6,22.7,12.8,30.9
		c8.5,8.5,19.7,12.8,30.9,12.8s22.4-4.3,30.9-12.8c17.1-17.1,17.1-44.8,0-61.9C322.2,172.6,311.2,168.1,299.6,168.1z M308.6,220.8
		c-5,5-13.1,5-18,0c-2.4-2.4-3.7-5.6-3.7-9s1.3-6.6,3.7-9c2.4-2.4,5.6-3.7,9-3.7s6.6,1.3,9,3.7C313.5,207.8,313.5,215.8,308.6,220.8
		z"/>
</g>
</svg>
