<?xml version="1.0" encoding="utf-8"?>
<!-- Generator: Adobe Illustrator 18.1.1, SVG Export Plug-In . SVG Version: 6.00 Build 0)  -->
<svg version="1.1" id="Layer_1" xmlns="http://www.w3.org/2000/svg" xmlns:xlink="http://www.w3.org/1999/xlink" x="0px" y="0px"
	 viewBox="0 0 512 512" enable-background="new 0 0 512 512" xml:space="preserve">
<g>
	<g>
		<path fill="#2E323F" d="M351.5,431.5h-46.2c-16.7,0-30.4-13.6-30.4-30.4v-11.6c-17.7,1.1-36.6,0.1-54.4-2.7v14.3
			c0,16.8-13.7,30.4-30.4,30.4h-46.1c-16.8,0-30.4-13.6-30.4-30.4v-57.2c-12.5-11.9-24.3-29.4-32.8-43.1c-16.3-1.7-21.9-1.9-51.7,6
			l-2.6,0.7l-2.6-0.3c-11.3-1.3-18.7-9.7-18.4-20.9c0.5-20,29.1-51,57.4-60c7.4-81.3,93-145.7,197.1-145.7
			c35.7,0,70.2,7.5,100.7,21.9c12.9-10.7,30.1-16.8,47.8-16.8c9.1,0,21.2,1.6,27.4,9.4c12.5,15.6-1.5,31.6-8.3,39.3
			c-1.8,2.1-4.1,7-5.9,13c14.4,16.3,24.9,34.9,30.6,54.3l30,7.4c15.8,3.1,26.6,19,23.4,35.4l-8.7,45.3
			c-2.8,14.3-15.3,24.7-29.9,24.7l0,0c-1.9,0-3.8-0.2-5.7-0.5l-24.4-6.1c-13.1,21-32,39.4-55.3,53.9v39.5
			C381.8,417.9,368.2,431.5,351.5,431.5z M302.9,358.4v42.7c0,1.4,1.1,2.5,2.5,2.5h46.2c1.4,0,2.5-1.1,2.5-2.5v-55.6l7.1-4
			c25.5-14.4,45.2-33.9,56.9-56.3l5.1-9.8l44.6,11.2c0.8-0.1,2-0.8,2.2-2.2l8.7-45.3c0.3-1.4-0.6-2.6-2-2.9l-47.2-11.5l-1.9-8.5
			c-4.4-19.8-15.1-38.9-30.9-55.1l-5-5.2l1.3-7.1c0.7-3.6,4.5-22.2,13-31.9c0.9-1.1,1.9-2.2,2.9-3.3c-5.6-0.1-22.8,0.9-34.9,14.9
			l-7.3,8.4l-9.8-5.2c-28.6-15.2-62-23.2-96.7-23.2c-93.6,0-169.7,58-169.7,129.3v13.1l-13.1,0.8c-12.7,0.8-27.8,13.1-36.6,23.5
			c18.1-4,27.8-3.8,49.9-1.4c6.9,0.9,9.6,5.2,12.2,9.4c13.4,21.8,24.7,36.5,33.5,43.5l5.2,4.2v70.2c0,1.4,1.1,2.5,2.5,2.5h46.1
			c1.4,0,2.5-1.1,2.5-2.5v-49l17.2,4.1c24.8,5.9,52,7.3,77.3,4.2L302.9,358.4z"/>
	</g>
</g>
</svg>
