<?xml version="1.0" encoding="utf-8"?>
<!-- Generator: Adobe Illustrator 19.1.0, SVG Export Plug-In . SVG Version: 6.00 Build 0)  -->
<svg version="1.1" id="Layer_1" xmlns="http://www.w3.org/2000/svg" xmlns:xlink="http://www.w3.org/1999/xlink" x="0px" y="0px"
	 viewBox="0 0 512 512" style="enable-background:new 0 0 512 512;" xml:space="preserve">
<style type="text/css">
	.st0{fill:#2E323F;}
</style>
<g>
	<path class="st0" d="M255.3,457.5c-2.5,0-5-0.7-7.3-2C140.1,389.6,69.9,275.3,60.4,149.6c-0.5-7.2,4.6-13.7,11.7-14.8
		c64.1-10.2,124.4-37.3,174.3-78.5c5.2-4.2,12.6-4.2,17.7,0c50.2,41.2,110.5,68.4,174.5,78.5c7.2,1.1,12.3,7.6,11.7,14.8
		c-9.5,125.7-79.7,240-187.8,305.9C260.3,456.8,257.8,457.5,255.3,457.5z M89.4,160.1c12.1,108.9,73.2,207.5,165.9,267.1
		c92.8-59.5,154-158.1,166.1-267.1C361,148.4,304,122.6,255.3,84.9C206.8,122.6,149.9,148.4,89.4,160.1z"/>
	
		<rect x="228.6" y="79.6" transform="matrix(0.7071 0.7071 -0.7071 0.7071 231.7685 -104.9535)" class="st0" width="27.9" height="295.5"/>
	
		<rect x="273" y="93.6" transform="matrix(0.7071 0.7071 -0.7071 0.7071 266.4116 -127.3702)" class="st0" width="27.9" height="328.6"/>
</g>
</svg>
