<?xml version="1.0" encoding="utf-8"?>
<!-- Generator: Adobe Illustrator 19.1.0, SVG Export Plug-In . SVG Version: 6.00 Build 0)  -->
<svg version="1.1" id="Layer_1" xmlns="http://www.w3.org/2000/svg" xmlns:xlink="http://www.w3.org/1999/xlink" x="0px" y="0px"
	 viewBox="-49 141 512 512" style="enable-background:new -49 141 512 512;" xml:space="preserve">
<style type="text/css">
	.st0{fill:#2E323F;}
</style>
<g>
	<path class="st0" d="M304.6,413.4l43.9,43.9c2.7,2.6,6.2,4.1,9.9,4.1c3.7,0,7.3-1.5,9.9-4.1l43.9-43.9c5.4-5.4,5.4-14.3,0-19.7
		c-5.4-5.4-14.3-5.4-19.7,0l-21,21c5.3-49.5-12-99.2-47.5-134.7c-31.2-31.2-72.7-48.4-116.9-48.4c-44.1,0-85.7,17.2-116.9,48.4
		c-5.4,5.4-5.4,14.3,0,19.7s14.3,5.4,19.7,0c25.9-26,60.5-40.3,97.2-40.3c36.7,0,71.2,14.3,97.2,40.3
		c29.7,29.8,44.1,71.5,39.3,113.1l-19.2-19.1c-5.4-5.4-14.3-5.4-19.7,0C299.2,399.2,299.2,408,304.6,413.4z"/>
	<path class="st0" d="M1.8,413.5c2.8,2.7,6.3,4.1,9.9,4.1s7.2-1.4,9.9-4.1l20.1-20.1c-1.1,45,16,88.1,48.4,120.5
		c31.2,31.2,72.7,48.4,116.9,48.4c44.1,0,85.6-17.2,116.9-48.4c5.4-5.4,5.4-14.3,0-19.7s-14.3-5.4-19.7,0
		c-25.9,26-60.5,40.3-97.2,40.3s-71.2-14.3-97.2-40.3c-27-27.1-41.3-63.1-40.2-100.8l20,20c5.4,5.4,14.3,5.4,19.7,0
		c5.4-5.4,5.4-14.3,0-19.7l-43.9-43.9c-5.4-5.4-14.3-5.4-19.7,0L1.8,393.7C-3.6,399.2-3.6,408,1.8,413.5z"/>
</g>
</svg>
