<?xml version="1.0" encoding="utf-8"?>
<!-- Generator: Adobe Illustrator 19.1.0, SVG Export Plug-In . SVG Version: 6.00 Build 0)  -->
<svg version="1.1" id="Layer_1" xmlns="http://www.w3.org/2000/svg" xmlns:xlink="http://www.w3.org/1999/xlink" x="0px" y="0px"
	 viewBox="0 0 512 512" style="enable-background:new 0 0 512 512;" xml:space="preserve">
<style type="text/css">
	.st0{fill:#2E323F;}
</style>
<g>
	<path class="st0" d="M374.4,137.6c-31.6-31.6-73.7-49-118.4-49s-86.8,17.4-118.4,49s-49,73.7-49,118.4s17.4,86.8,49,118.4
		c31.6,31.6,73.7,49,118.4,49s86.8-17.4,118.4-49C439.7,309.1,439.7,202.9,374.4,137.6z M354.7,354.7
		c-26.3,26.3-61.4,40.9-98.7,40.9c-37.2,0-72.3-14.5-98.6-40.9c-26.3-26.3-40.9-61.4-40.9-98.7s14.5-72.3,40.9-98.7
		c26.3-26.3,61.4-40.9,98.6-40.9c37.3,0,72.3,14.5,98.7,40.9C409.1,211.7,409.1,300.3,354.7,354.7z"/>
	<path class="st0" d="M363.3,256c0,7.8-6.3,14-14,14H162.7c-7.8,0-14-6.2-14-14s6.3-14,14-14h186.6C357,242,363.3,248.2,363.3,256z"
		/>
</g>
</svg>
