<?xml version="1.0" encoding="utf-8"?>
<!-- Generator: Adobe Illustrator 19.1.0, SVG Export Plug-In . SVG Version: 6.00 Build 0)  -->
<svg version="1.1" id="Layer_1" xmlns="http://www.w3.org/2000/svg" xmlns:xlink="http://www.w3.org/1999/xlink" x="0px" y="0px"
	 viewBox="0 0 512 512" style="enable-background:new 0 0 512 512;" xml:space="preserve">
<style type="text/css">
	.st0{fill:#2E323F;}
</style>
<g id="XMLID_472_">
	<g>
		<path class="st0" d="M185.8,339c-3.9,0-7.8-1.5-10.7-4.5c-5.9-5.9-5.8-15.5,0.1-21.4L424.9,65.8c5.9-5.9,15.5-5.8,21.4,0.1
			c5.9,5.9,5.8,15.5-0.1,21.4L196.4,334.7C193.5,337.6,189.6,339,185.8,339z"/>
		<path class="st0" d="M435.5,283.9c-8.4,0-15.1-6.8-15.1-15.1V91.6H243.2c-8.4,0-15.1-6.8-15.1-15.1s6.8-15.1,15.1-15.1h192.3
			c8.4,0,15.1,6.8,15.1,15.1v192.3C450.6,277.2,443.9,283.9,435.5,283.9z"/>
		<path class="st0" d="M422.7,450.6H76.5c-8.4,0-15.1-6.8-15.1-15.1V89.3c0-8.4,6.8-15.1,15.1-15.1S91.6,81,91.6,89.3v331h331
			c8.4,0,15.1,6.8,15.1,15.1C437.8,443.8,431,450.6,422.7,450.6z"/>
	</g>
</g>
</svg>
