<?xml version="1.0" encoding="utf-8"?>
<!-- Generator: Adobe Illustrator 18.1.1, SVG Export Plug-In . SVG Version: 6.00 Build 0)  -->
<svg version="1.1" id="Layer_1" xmlns="http://www.w3.org/2000/svg" xmlns:xlink="http://www.w3.org/1999/xlink" x="0px" y="0px"
	 viewBox="0 0 512 512" enable-background="new 0 0 512 512" xml:space="preserve">
<path fill="#2E323F" d="M391,121c-29.9-29.9-69.6-46.4-111.9-46.4c-42.3,0-82,16.5-111.9,46.4c-29.9,29.9-46.4,69.6-46.4,111.9
	c0,37.6,13,73.2,36.9,101.6l-78.9,78.9c-5.4,5.4-5.4,14.3,0,19.7c2.7,2.7,6.3,4.1,9.9,4.1s7.1-1.4,9.9-4.1l78.9-78.9
	c28.4,23.9,64,37,101.7,37c42.3,0,82-16.5,111.9-46.4c29.9-29.9,46.4-69.6,46.4-112C437.4,190.7,420.9,150.9,391,121z M371.3,325.2
	c-24.6,24.6-57.4,38.2-92.2,38.2s-67.6-13.6-92.2-38.2s-38.2-57.4-38.2-92.2c0-34.8,13.6-67.6,38.2-92.2s57.4-38.2,92.2-38.2
	s67.6,13.6,92.2,38.2s38.2,57.4,38.2,92.2C409.5,267.8,395.9,300.6,371.3,325.2z"/>
</svg>
