<?xml version="1.0" encoding="utf-8"?>
<!-- Generator: Adobe Illustrator 19.1.0, SVG Export Plug-In . SVG Version: 6.00 Build 0)  -->
<svg version="1.1" id="Layer_1" xmlns="http://www.w3.org/2000/svg" xmlns:xlink="http://www.w3.org/1999/xlink" x="0px" y="0px"
	 viewBox="0 0 512 512" style="enable-background:new 0 0 512 512;" xml:space="preserve">
<style type="text/css">
	.st0{fill:#2E323F;}
</style>
<g>
	<g id="XMLID_129_">
		<path class="st0" d="M81.8,267.8c-4.5,0-8.7-2.5-10.7-6.8c-2.8-5.9-0.2-13,5.7-15.7L399.7,94.7c5.9-2.7,12.9-0.2,15.7,5.7
			c2.8,5.9,0.2,13-5.7,15.7L86.8,266.7C85.2,267.5,83.5,267.8,81.8,267.8z"/>
		<path class="st0" d="M379.9,202.3c-1.3,0-2.7-0.2-4-0.7c-6.2-2.2-9.3-9-7.1-15.2L397,109l-77.4-28.2c-6.2-2.2-9.3-9-7.1-15.2
			c2.2-6.1,9-9.3,15.2-7.1l88.5,32.2c3,1.1,5.4,3.3,6.7,6.1c1.3,2.8,1.5,6.1,0.4,9.1L391,194.5C389.3,199.3,384.8,202.3,379.9,202.3
			z"/>
	</g>
	<g id="XMLID_126_">
		<path class="st0" d="M404.7,418.4c-1.7,0-3.4-0.4-5-1.1L76.8,266.7c-5.9-2.8-8.5-9.8-5.7-15.7c2.8-5.9,9.8-8.5,15.7-5.7
			l322.8,150.5c5.9,2.8,8.5,9.8,5.7,15.7C413.4,415.8,409.1,418.4,404.7,418.4z"/>
		<path class="st0" d="M323.6,454.1c-4.8,0-9.4-3-11.1-7.8c-2.2-6.1,0.9-12.9,7.1-15.2l77.4-28.2l-28.2-77.4
			c-2.2-6.1,0.9-12.9,7.1-15.2c6.2-2.3,12.9,0.9,15.2,7.1l32.2,88.5c1.1,2.9,0.9,6.2-0.4,9.1c-1.3,2.8-3.7,5-6.7,6.1l-88.5,32.2
			C326.3,453.8,325,454.1,323.6,454.1z"/>
	</g>
</g>
</svg>
