<?xml version="1.0" encoding="utf-8"?>
<!-- Generator: Adobe Illustrator 19.1.0, SVG Export Plug-In . SVG Version: 6.00 Build 0)  -->
<svg version="1.1" id="Layer_1" xmlns="http://www.w3.org/2000/svg" xmlns:xlink="http://www.w3.org/1999/xlink" x="0px" y="0px"
	 viewBox="0 0 512 512" style="enable-background:new 0 0 512 512;" xml:space="preserve">
<style type="text/css">
	.st0{fill:#2E323F;}
</style>
<g>
	<g id="XMLID_59_">
		<g id="XMLID_84_">
			<path class="st0" d="M256,423c-92.1,0-167-74.9-167-167S163.9,89,256,89s167,74.9,167,167S348.1,423,256,423z M256,114.7
				c-77.9,0-141.3,63.4-141.3,141.3S178.1,397.3,256,397.3S397.3,333.9,397.3,256S333.9,114.7,256,114.7z"/>
		</g>
	</g>
	<g id="XMLID_86_">
		<g id="XMLID_99_">
			<path class="st0" d="M256,320.2c-35.4,0-64.2-28.8-64.2-64.2s28.8-64.2,64.2-64.2s64.2,28.8,64.2,64.2S291.4,320.2,256,320.2z
				 M256,217.5c-21.3,0-38.5,17.3-38.5,38.5s17.3,38.5,38.5,38.5s38.5-17.3,38.5-38.5S277.3,217.5,256,217.5z"/>
		</g>
	</g>
	<path class="st0" d="M256,217.5c-7.1,0-12.8-5.7-12.8-12.8V101.8c0-7.1,5.7-12.8,12.8-12.8c7.1,0,12.8,5.7,12.8,12.8v102.8
		C268.8,211.7,263.1,217.5,256,217.5z"/>
	<path class="st0" d="M147.1,377.7c-3.3,0-6.6-1.3-9.1-3.8c-5-5-5-13.1,0-18.2l70-70.1c5-5,13.1-5,18.2,0c5,5,5,13.1,0,18.2
		l-70,70.1C153.7,376.5,150.4,377.7,147.1,377.7z"/>
	<path class="st0" d="M364.3,377.1c-3.3,0-6.6-1.3-9.1-3.8l-69.4-69.4c-5-5-5-13.1,0-18.2c5-5,13.1-5,18.2,0l69.4,69.4
		c5,5,5,13.1,0,18.2C370.8,375.9,367.6,377.1,364.3,377.1z"/>
</g>
</svg>
