<?xml version="1.0" encoding="utf-8"?>
<!-- Generator: Adobe Illustrator 18.1.1, SVG Export Plug-In . SVG Version: 6.00 Build 0)  -->
<svg version="1.1" id="Layer_1" xmlns="http://www.w3.org/2000/svg" xmlns:xlink="http://www.w3.org/1999/xlink" x="0px" y="0px"
	 viewBox="0 0 512 512" enable-background="new 0 0 512 512" xml:space="preserve">
<g>
	<g>
		<g>
			<path fill="#2E323F" d="M256,437.4C156,437.4,74.6,356,74.6,256S156,74.6,256,74.6S437.4,156,437.4,256S356,437.4,256,437.4z
				 M256,102.5c-84.6,0-153.5,68.8-153.5,153.5S171.4,409.5,256,409.5S409.5,340.6,409.5,256S340.6,102.5,256,102.5z"/>
		</g>
		<g>
			<path fill="#2E323F" d="M256,367.6c-61.6,0-111.6-50.1-111.6-111.6S194.4,144.4,256,144.4S367.6,194.5,367.6,256
				S317.6,367.6,256,367.6z M256,172.3c-46.2,0-83.7,37.5-83.7,83.7s37.5,83.7,83.7,83.7s83.7-37.5,83.7-83.7S302.2,172.3,256,172.3
				z"/>
		</g>
		<g>
			<circle fill="#2E323F" cx="256" cy="256" r="27.9"/>
		</g>
	</g>
</g>
</svg>
