<?xml version="1.0" encoding="utf-8"?>
<!-- Generator: Adobe Illustrator 18.1.1, SVG Export Plug-In . SVG Version: 6.00 Build 0)  -->
<svg version="1.1" id="Layer_1" xmlns="http://www.w3.org/2000/svg" xmlns:xlink="http://www.w3.org/1999/xlink" x="0px" y="0px"
	 viewBox="0 0 512 512" enable-background="new 0 0 512 512" xml:space="preserve">
<g>
	<g>
		<path fill="#2E323F" d="M461.1,148.5H148.7c-7.7,0-14-6.2-14-14s6.2-14,14-14h312.4c7.7,0,14,6.2,14,14S468.8,148.5,461.1,148.5z"
			/>
	</g>
	<g>
		<path fill="#2E323F" d="M461.1,270H148.7c-7.7,0-14-6.2-14-14c0-7.7,6.2-14,14-14h312.4c7.7,0,14,6.2,14,14
			C475,263.7,468.8,270,461.1,270z"/>
	</g>
	<g>
		<path fill="#2E323F" d="M461.1,391.4H148.7c-7.7,0-14-6.2-14-14s6.2-14,14-14h312.4c7.7,0,14,6.2,14,14S468.8,391.4,461.1,391.4z"
			/>
	</g>
	<g>
		<circle fill="#2E323F" cx="64.9" cy="134.6" r="27.9"/>
		<circle fill="#2E323F" cx="64.9" cy="256" r="27.9"/>
		<circle fill="#2E323F" cx="64.9" cy="377.4" r="27.9"/>
	</g>
</g>
</svg>
