<?xml version="1.0" encoding="utf-8"?>
<!-- Generator: Adobe Illustrator 19.1.0, SVG Export Plug-In . SVG Version: 6.00 Build 0)  -->
<svg version="1.1" id="Layer_1" xmlns="http://www.w3.org/2000/svg" xmlns:xlink="http://www.w3.org/1999/xlink" x="0px" y="0px"
	 viewBox="0 0 512 512" style="enable-background:new 0 0 512 512;" xml:space="preserve">
<style type="text/css">
	.st0{fill:#2E323F;}
</style>
<path class="st0" d="M232.1,433c-2.9,0-5.7-1.1-7.9-3.2L75.2,284.7c-2.2-2.1-3.4-5.1-3.4-8.1c0-3.1,1.2-6,3.4-8.1L256,92.2
	c2.6-2.5,6.3-3.6,9.8-3.1L393,110.3c4.8,0.8,8.5,4.5,9.3,9.3l21.7,124c0.6,3.7-0.6,7.5-3.3,10.1L240,429.8
	C237.8,431.9,234.9,433,232.1,433z M99.5,276.5l132.6,129.2l168.5-164.2l-19.2-110.1l-113.6-18.9L99.5,276.5z M330.3,215.5
	c-9,0-18-3.3-24.8-10c-6.7-6.5-10.4-15.3-10.4-24.6c0-9.3,3.7-18.1,10.4-24.6c13.7-13.3,36-13.3,49.6,0l0,0
	c6.7,6.6,10.4,15.3,10.4,24.6c0,9.3-3.7,18-10.4,24.6C348.2,212.1,339.2,215.5,330.3,215.5z M330.2,168.9c-3.2,0-6.5,1.2-8.9,3.6
	c-2.3,2.2-3.6,5.2-3.6,8.3c0,3.1,1.3,6.1,3.6,8.3c4.9,4.8,13,4.8,17.9,0c2.3-2.2,3.6-5.2,3.6-8.3c0-3.1-1.3-6.1-3.6-8.3c0,0,0,0,0,0
	C336.7,170.1,333.5,168.9,330.2,168.9z"/>
</svg>
