<?xml version="1.0" encoding="utf-8"?>
<!-- Generator: Adobe Illustrator 18.1.1, SVG Export Plug-In . SVG Version: 6.00 Build 0)  -->
<svg version="1.1" id="Layer_1" xmlns="http://www.w3.org/2000/svg" xmlns:xlink="http://www.w3.org/1999/xlink" x="0px" y="0px"
	 viewBox="0 0 512 512" enable-background="new 0 0 512 512" xml:space="preserve">
<g>
	<g>
		<path fill="#2E323F" d="M258,280.5c-53.7,0-97.3-48.9-97.3-108.9S204.3,62.7,258,62.7c53.7,0,97.3,48.9,97.3,108.9
			S311.7,280.5,258,280.5z M258,90.6c-38.3,0-69.4,36.3-69.4,81s31.1,81,69.4,81c38.3,0,69.4-36.3,69.4-81S296.3,90.6,258,90.6z"/>
	</g>
	<g>
		<path fill="#2E323F" d="M412.8,449.3H99.2c-13.5,0-24.6-10.8-24.6-24.1v-19.3c0-48.5,78-85.1,181.4-85.1s181.4,36.6,181.4,85.1
			v19.3C437.4,438.5,426.4,449.3,412.8,449.3z M102.5,421.4h306.9v-15.5c0-27-65.6-57.2-153.5-57.2s-153.5,30.2-153.5,57.2V421.4z"
			/>
	</g>
</g>
</svg>
