<?xml version="1.0" encoding="utf-8"?>
<!-- Generator: Adobe Illustrator 19.0.0, SVG Export Plug-In . SVG Version: 6.00 Build 0)  -->
<svg version="1.1" id="Layer_1" xmlns="http://www.w3.org/2000/svg" xmlns:xlink="http://www.w3.org/1999/xlink" x="0px" y="0px"
	 viewBox="96 29 512 512" style="enable-background:new 96 29 512 512;" xml:space="preserve">
<style type="text/css">
	.st0{fill:#2E323F;}
</style>
<g>
	<path class="st0" d="M518.7,294.6L284.4,183.4c-6.5-3.8-15.4-3.2-21.3,1.4c-6.2,4.8-8.9,12.8-6.8,20.4l68.3,240.4
		c1.9,6.8,7.4,12.1,14.5,13.7c1.6,0.4,5.7,0.4,7.3,0.2c4.4-0.8,8.5-3.1,11.4-6.6l46.3-54.9l45.1,52.8c6.1,7.9,15.3,12.4,25.3,12.4
		c1.8,0,3.6-0.2,5.4-0.5c5.1-0.9,9.9-3,14.1-6.2c6.8-5.2,11.1-12.8,12.2-21.2c1.1-8.4-1.2-16.8-6.8-24l-44.5-52.1l63.5-30.2
		c6.4-3.1,10.6-9.4,10.9-16.5C529.5,305.3,525.8,298.6,518.7,294.6z M428.8,343.2c-3.6,1.7-6.2,5-7,8.9c-0.8,3.9,0.2,8,2.8,11
		l54.9,64.4c1.4,1.8,1.4,3.6,1.3,4.6c-0.1,1-0.6,2.8-2.4,4.2c-0.9,0.7-1.8,1.1-2.8,1.3l-1.1,0.1c-2,0-3.8-0.9-5.4-3l-55.3-64.8
		c-2.4-2.9-6-4.5-9.7-4.5c0,0,0,0-0.1,0c-3.8,0-7.3,1.7-9.8,4.6L346,427.1l-61.1-215.2l210.2,99.8L428.8,343.2z"/>
	<path class="st0" d="M255.4,324.8h-55.1V132.4h192.3v65c0,7.1,5.7,12.8,12.8,12.8c7.1,0,12.8-5.7,12.8-12.8v-77.8
		c0-7.1-5.7-12.8-12.8-12.8H187.6c-7.1,0-12.8,5.7-12.8,12.8v217.9c0,7.1,5.7,12.8,12.8,12.8h67.9c7.1,0,12.8-5.7,12.8-12.8
		C268.3,330.5,262.5,324.8,255.4,324.8z"/>
</g>
</svg>
