<?xml version="1.0" encoding="utf-8"?>
<!-- Generator: Adobe Illustrator 18.1.1, SVG Export Plug-In . SVG Version: 6.00 Build 0)  -->
<svg version="1.1" id="Layer_1" xmlns="http://www.w3.org/2000/svg" xmlns:xlink="http://www.w3.org/1999/xlink" x="0px" y="0px"
	 viewBox="0 0 512 512" enable-background="new 0 0 512 512" xml:space="preserve">
<g>
	<g>
		<path fill="#2E323F" d="M256,380.3C150,380.3,66.9,269,63.4,264.3c-3.6-4.9-3.6-11.6,0-16.5C66.9,243,150,131.7,256,131.7
			S445.1,243,448.6,247.7c3.6,4.9,3.6,11.6,0,16.5C445.1,269,362,380.3,256,380.3z M92.5,256c20.7,24.7,87.2,96.5,163.5,96.5
			c76.5,0,142.9-71.7,163.5-96.4c-20.7-24.7-87.2-96.5-163.5-96.5C179.5,159.6,113.1,231.2,92.5,256z"/>
	</g>
	<g>
		<path fill="#2E323F" d="M256,326.9c-39.1,0-70.9-31.8-70.9-70.9s31.8-70.9,70.9-70.9s70.9,31.8,70.9,70.9S295.1,326.9,256,326.9z
			 M256,213c-23.7,0-43,19.3-43,43s19.3,43,43,43c23.7,0,43-19.3,43-43S279.7,213,256,213z"/>
	</g>
</g>
</svg>
