<?xml version="1.0" encoding="utf-8"?>
<!-- Generator: Adobe Illustrator 21.0.0, SVG Export Plug-In . SVG Version: 6.00 Build 0)  -->
<svg version="1.1" id="Layer_1" xmlns="http://www.w3.org/2000/svg" xmlns:xlink="http://www.w3.org/1999/xlink" x="0px" y="0px"
	 viewBox="0 0 512 512" style="enable-background:new 0 0 512 512;" xml:space="preserve">
<style type="text/css">
	.st0{fill:#2E323F;}
</style>
<g>
	<g>
		<path class="st0" d="M209.9,221.7H98.3c-6.2,0-11.2-5-11.2-11.2V99c0-6.2,5-11.2,11.2-11.2h111.6c6.2,0,11.2,5,11.2,11.2v111.6
			C221,216.8,216,221.7,209.9,221.7z M109.4,199.4h89.3v-89.3h-89.3V199.4z"/>
		<path class="st0" d="M410.7,221.7H299.1c-6.2,0-11.2-5-11.2-11.2V99c0-6.2,5-11.2,11.2-11.2h111.6c6.2,0,11.2,5,11.2,11.2v111.6
			C421.9,216.8,416.9,221.7,410.7,221.7z M310.3,199.4h89.3v-89.3h-89.3V199.4z"/>
		<path class="st0" d="M209.9,422.6H98.3c-6.2,0-11.2-5-11.2-11.2V299.9c0-6.2,5-11.2,11.2-11.2h111.6c6.2,0,11.2,5,11.2,11.2v111.6
			C221,417.6,216,422.6,209.9,422.6z M109.4,400.3h89.3V311h-89.3V400.3z"/>
		<path class="st0" d="M410.7,422.6H299.1c-6.2,0-11.2-5-11.2-11.2V299.9c0-6.2,5-11.2,11.2-11.2h111.6c6.2,0,11.2,5,11.2,11.2
			v111.6C421.9,417.6,416.9,422.6,410.7,422.6z M310.3,400.3h89.3V311h-89.3V400.3z"/>
	</g>
</g>
</svg>
