<?xml version="1.0" encoding="utf-8"?>
<!-- Generator: Adobe Illustrator 18.1.1, SVG Export Plug-In . SVG Version: 6.00 Build 0)  -->
<svg version="1.1" id="Layer_1" xmlns="http://www.w3.org/2000/svg" xmlns:xlink="http://www.w3.org/1999/xlink" x="0px" y="0px"
	 viewBox="0 0 512 512" enable-background="new 0 0 512 512" xml:space="preserve">
<path fill="#2E323F" d="M310.7,362.8l-40.8,40.8V108.2l40.8,40.8c2.7,2.7,6.3,4.1,9.9,4.1s7.1-1.4,9.9-4.1c5.4-5.4,5.4-14.3,0-19.7
	l-64.6-64.6c-5.2-5.2-14.5-5.2-19.7,0l-64.6,64.6c-5.4,5.4-5.4,14.3,0,19.7c5.4,5.4,14.3,5.4,19.7,0l40.8-40.8v295.4l-40.8-40.8
	c-5.4-5.4-14.3-5.4-19.7,0c-5.4,5.4-5.4,14.3,0,19.7l64.6,64.6c2.6,2.6,6.2,4.1,9.9,4.1c3.7,0,7.2-1.5,9.9-4.1l64.6-64.6
	c5.4-5.4,5.4-14.3,0-19.7C325,357.4,316.2,357.4,310.7,362.8z"/>
</svg>
